<?xml version="1.0" encoding="UTF-8"?><svg id="Layer_1" xmlns="http://www.w3.org/2000/svg" viewBox="0 0 435.71 45.9"><defs><style>.cls-1{fill:#00ff73;}.cls-2{fill:#606060;}.cls-3{fill:#7a7a7a;}</style></defs><path class="cls-2" d="M25.01,10.73c-.57-4.39-4.77-4.86-8.45-4.86s-6.23,1.7-6.23,3.96c0,1.79,1.51,2.79,3.87,3.16l11.47,1.84c6.13.99,10.81,3.3,10.81,9.44s-4.25,11.32-17.51,11.32C10.76,35.6.09,34.56,0,24.03h10.29c.09,4.63,4.72,5.43,8.68,5.43,4.29,0,7.22-1.27,7.22-4.2,0-2.6-2.08-3.3-5.71-3.87l-8.35-1.27c-5.85-.9-11.51-2.64-11.51-9.53C.61,3.08,6.75.02,17.32.02,24.26.02,34.54,1.2,35.16,10.73h-10.15Z"/><path class="cls-2" d="M63.32,9.36h8.02v34.68h-8.31v-12.22h-.09c-1.6,2.26-5.05,3.78-9.72,3.78-7.98,0-14.11-5.38-14.11-13.59,0-8.87,6.47-13.31,14.68-13.31,3.49,0,6.28.71,9.44,4.11h.09v-3.44ZM55.53,29.46c4.15,0,7.79-2.5,7.79-7.31s-3.63-7.31-7.79-7.31-7.83,2.5-7.83,7.31,3.63,7.31,7.83,7.31Z"/><path class="cls-2" d="M98.28,31.25h-.09c-1.51,2.12-5.47,4.34-10.33,4.34-4.29,0-10.85-1.65-10.85-9.11V9.36h8.31v14.63c0,3.49,1.84,5.19,5.66,5.19,4.48,0,7.03-2.5,7.03-7.17v-12.64h8.31v25.29h-8.02v-3.4Z"/><path class="cls-2" d="M112.05,17.1c.99-7.79,8.16-8.68,14.96-8.68,11.89,0,14.44,3.87,14.44,8.59v12.55c0,2.22.38,3.82.94,5.1h-8.31c-.28-.9-.52-1.79-.57-2.69-2.83,2.83-8.12,3.63-11.84,3.63-6.61,0-11.23-2.31-11.23-8.21s5.43-7.46,10.48-7.79l8.82-.62c2.55-.19,3.4-.61,3.4-2.64s-1.7-3.02-6.51-3.02c-3.54,0-5.38.28-6.56,3.78h-8.02ZM133.43,22.34c-1.56.76-3.26.94-4.91,1.09l-4.81.42c-2.93.24-4.39,1.04-4.39,3.3s2.12,3.54,5.24,3.54c4.2,0,8.87-2.03,8.87-6.28v-2.08Z"/><path class="cls-2" d="M169.94,31.49h-.09c-2.69,3.26-6.23,4.11-10,4.11-7.88,0-14.11-4.48-14.11-13.31,0-8.21,6.13-13.59,14.11-13.59,4.67,0,8.12,1.51,9.72,3.78h.09V.39h8.3v34.26h-8.02v-3.16ZM162.16,29.46c4.15,0,7.78-2.5,7.78-7.31s-3.63-7.31-7.78-7.31-7.83,2.5-7.83,7.31,3.63,7.31,7.83,7.31Z"/><path class="cls-3" d="M206.79,24.84h-16.52l-4.29,9.82h-5.38L195.85.96h5.71l15.24,33.69h-5.71l-4.29-9.82ZM198.49,5.58l-6.32,14.91h12.79l-6.46-14.91Z"/><path class="cls-3" d="M219.48,9.92h4.72v3.45h.09c1.84-2.6,5.76-4.01,9.39-4.01,7.46,0,13.45,4.77,13.45,13.07s-5.99,13.07-13.45,13.07c-3.68,0-7.5-1.32-9.39-4.01h-.09v12.69h-4.72V9.92ZM233.07,13.32c-6.42,0-9.15,4.44-9.15,9.11,0,5.66,3.63,9.11,9.15,9.11s9.06-3.44,9.06-9.11c0-4.67-2.69-9.11-9.06-9.11Z"/><path class="cls-3" d="M251.8,9.92h4.72v3.45h.09c1.84-2.6,5.76-4.01,9.39-4.01,7.46,0,13.45,4.77,13.45,13.07s-5.99,13.07-13.45,13.07c-3.68,0-7.5-1.32-9.39-4.01h-.09v12.69h-4.72V9.92ZM265.39,13.32c-6.42,0-9.15,4.44-9.15,9.11,0,5.66,3.63,9.11,9.15,9.11s9.06-3.44,9.06-9.11c0-4.67-2.69-9.11-9.06-9.11Z"/><path class="cls-3" d="M287.42,26.87c0,2.22,1.79,4.96,7.79,4.96s7.55-2.12,7.55-3.87-.9-2.78-4.67-3.3l-7.79-1.04c-3.54-.47-6.7-2.74-6.7-6.56,0-5,4.34-7.98,11.28-7.98,8.12,0,11.66,3.49,12.08,8.3h-4.72c-.14-2.5-2.5-4.63-7.41-4.63-3.02,0-6.51.85-6.51,3.78,0,1.65.75,2.6,4.11,3.07l6.7.9c6.23.85,8.63,3.07,8.63,6.56,0,5.76-4.86,8.45-12.41,8.45-5.66,0-12.13-1.46-12.65-8.64h4.72Z"/><path class="cls-2" d="M355.56.39v2.66h-7.96v4.98h6.27v2.57h-6.27v5.08h7.96v2.67h-11.33V.39h11.33Z"/><path class="cls-2" d="M376.27,9.38c0,1.32-.22,2.53-.66,3.63-.44,1.1-1.06,2.05-1.85,2.85-.8.79-1.75,1.41-2.87,1.85s-2.36.66-3.71.66h-6.86V.39h6.86c1.36,0,2.6.22,3.71.66s2.07,1.06,2.87,1.85c.79.79,1.41,1.74,1.85,2.84.44,1.1.66,2.31.66,3.63ZM372.86,9.38c0-.99-.13-1.87-.4-2.65-.26-.78-.64-1.44-1.13-1.99-.49-.54-1.08-.96-1.78-1.25-.7-.29-1.49-.43-2.37-.43h-3.49v12.65h3.49c.88,0,1.67-.14,2.37-.43.7-.29,1.29-.71,1.78-1.25.49-.54.87-1.21,1.13-1.99.27-.78.4-1.67.4-2.65Z"/><path class="cls-2" d="M387.99,15.66c.65,0,1.22-.11,1.73-.32s.94-.52,1.29-.91.62-.86.81-1.42c.19-.56.28-1.18.28-1.86V.39h3.34v10.76c0,1.07-.17,2.06-.51,2.96-.34.91-.84,1.69-1.49,2.35s-1.43,1.17-2.35,1.54c-.92.37-1.96.55-3.11.55s-2.19-.19-3.11-.55c-.92-.37-1.7-.88-2.34-1.54s-1.13-1.44-1.48-2.35-.52-1.89-.52-2.96V.39h3.34v10.75c0,.69.09,1.31.28,1.86s.45,1.03.8,1.42.78.7,1.29.91c.51.22,1.09.32,1.73.32Z"/><path class="cls-1" d="M355.23,31.01c-.09.18-.2.31-.32.39s-.26.11-.43.11-.35-.06-.56-.19-.45-.27-.73-.43c-.28-.16-.61-.3-.99-.43-.38-.13-.82-.19-1.34-.19-.46,0-.87.06-1.21.17-.34.11-.63.27-.87.47-.24.2-.41.44-.53.71-.12.28-.17.58-.17.91,0,.42.12.78.35,1.06.24.28.55.52.94.72.39.2.83.38,1.33.53.5.16,1,.33,1.52.5s1.02.39,1.52.62c.5.24.94.53,1.33.89.39.36.7.8.94,1.32.24.52.35,1.16.35,1.9,0,.81-.14,1.57-.42,2.28-.28.71-.68,1.33-1.22,1.85-.53.53-1.19.94-1.96,1.24-.77.3-1.65.45-2.65.45-.57,0-1.13-.06-1.69-.17-.56-.11-1.09-.27-1.6-.48-.51-.21-.99-.46-1.43-.75-.44-.29-.84-.61-1.19-.97l.97-1.6c.09-.12.2-.21.33-.29s.27-.12.43-.12c.21,0,.43.08.67.25.24.17.52.36.85.57.33.21.71.4,1.15.57.44.17.98.25,1.6.25.95,0,1.69-.23,2.21-.68.52-.45.78-1.1.78-1.95,0-.47-.12-.86-.35-1.15-.24-.3-.55-.55-.94-.75-.39-.2-.83-.37-1.33-.52-.5-.14-1-.29-1.52-.46s-1.02-.36-1.52-.6c-.5-.23-.94-.53-1.33-.91-.39-.37-.7-.84-.94-1.4-.24-.56-.35-1.25-.35-2.07,0-.65.13-1.29.39-1.91.26-.62.64-1.17,1.14-1.65.5-.48,1.12-.87,1.84-1.16s1.56-.43,2.5-.43c1.06,0,2.04.17,2.93.5.89.33,1.66.8,2.29,1.39l-.82,1.58Z"/><path class="cls-1" d="M373.14,41.47c.18,0,.34.07.47.21l1.32,1.43c-.73.9-1.63,1.59-2.69,2.07-1.06.48-2.34.72-3.83.72-1.33,0-2.53-.23-3.6-.68-1.06-.46-1.97-1.09-2.73-1.9-.75-.81-1.33-1.78-1.73-2.91-.4-1.13-.6-2.36-.6-3.69s.22-2.59.67-3.71c.45-1.12,1.08-2.09,1.89-2.9s1.78-1.44,2.91-1.89c1.13-.45,2.38-.68,3.75-.68s2.5.21,3.5.64c1,.43,1.85.99,2.56,1.7l-1.12,1.55c-.07.1-.15.19-.25.26-.1.07-.25.11-.43.11s-.39-.07-.58-.22c-.2-.15-.45-.31-.76-.49s-.69-.33-1.16-.48c-.47-.15-1.06-.22-1.78-.22-.85,0-1.62.15-2.33.44s-1.32.71-1.83,1.26c-.51.55-.91,1.21-1.19,1.99-.29.78-.43,1.66-.43,2.64s.14,1.91.43,2.7c.29.79.67,1.45,1.16,1.99.49.54,1.06.95,1.73,1.24.66.29,1.37.43,2.14.43.46,0,.87-.03,1.24-.07.37-.05.71-.13,1.02-.24.31-.11.6-.25.88-.42.28-.17.55-.38.83-.63.08-.07.17-.14.26-.18s.19-.07.3-.07Z"/><path class="cls-1" d="M396.55,36.72c0,1.32-.22,2.54-.66,3.66s-1.06,2.09-1.85,2.91c-.79.82-1.75,1.46-2.87,1.92-1.12.46-2.36.69-3.71.69s-2.6-.23-3.72-.69c-1.12-.46-2.08-1.1-2.88-1.92-.8-.82-1.42-1.79-1.86-2.91-.44-1.12-.66-2.34-.66-3.66s.22-2.54.66-3.66c.44-1.12,1.06-2.09,1.86-2.91.8-.82,1.76-1.46,2.88-1.92s2.36-.69,3.72-.69,2.6.23,3.71.7,2.07,1.1,2.87,1.92c.8.82,1.41,1.78,1.85,2.91s.66,2.34.66,3.66ZM393.12,36.72c0-.99-.13-1.87-.39-2.65s-.64-1.45-1.12-1.99c-.49-.55-1.08-.96-1.78-1.25-.7-.29-1.49-.43-2.37-.43s-1.67.14-2.37.43c-.7.29-1.3.71-1.8,1.25s-.87,1.21-1.14,1.99c-.27.78-.4,1.67-.4,2.65s.13,1.87.4,2.65c.26.78.64,1.45,1.14,1.99.49.54,1.09.96,1.8,1.25.7.29,1.49.43,2.37.43s1.67-.14,2.37-.43c.7-.29,1.29-.71,1.78-1.25.49-.54.86-1.21,1.12-1.99s.39-1.67.39-2.65Z"/><path class="cls-1" d="M418.28,36.72c0,1.32-.22,2.54-.66,3.66s-1.06,2.09-1.85,2.91c-.79.82-1.75,1.46-2.87,1.92-1.12.46-2.36.69-3.71.69s-2.6-.23-3.72-.69c-1.12-.46-2.08-1.1-2.88-1.92-.8-.82-1.42-1.79-1.86-2.91-.44-1.12-.66-2.34-.66-3.66s.22-2.54.66-3.66c.44-1.12,1.06-2.09,1.86-2.91.8-.82,1.76-1.46,2.88-1.92s2.36-.69,3.72-.69,2.6.23,3.71.7,2.07,1.1,2.87,1.92c.8.82,1.41,1.78,1.85,2.91s.66,2.34.66,3.66ZM414.85,36.72c0-.99-.13-1.87-.39-2.65s-.64-1.45-1.12-1.99c-.49-.55-1.08-.96-1.78-1.25-.7-.29-1.49-.43-2.37-.43s-1.67.14-2.37.43c-.7.29-1.3.71-1.8,1.25s-.87,1.21-1.14,1.99c-.27.78-.4,1.67-.4,2.65s.13,1.87.4,2.65c.26.78.64,1.45,1.14,1.99.49.54,1.09.96,1.8,1.25.7.29,1.49.43,2.37.43s1.67-.14,2.37-.43c.7-.29,1.29-.71,1.78-1.25.49-.54.86-1.21,1.12-1.99s.39-1.67.39-2.65Z"/><path class="cls-1" d="M426.23,39.38v6.32h-3.34v-17.96h5.85c1.2,0,2.24.14,3.12.42.88.28,1.6.68,2.17,1.18.57.5.99,1.11,1.27,1.81.27.7.41,1.47.41,2.31s-.15,1.67-.43,2.39c-.29.72-.72,1.35-1.3,1.87-.58.52-1.31.93-2.17,1.22-.87.29-1.89.43-3.06.43h-2.51ZM426.23,36.77h2.51c.61,0,1.15-.08,1.6-.23.46-.15.83-.37,1.13-.66.3-.29.52-.63.67-1.04.15-.41.22-.87.22-1.37s-.07-.91-.22-1.3c-.15-.39-.37-.72-.67-.99s-.68-.48-1.13-.63c-.45-.14-.99-.22-1.6-.22h-2.51v6.45Z"/><rect class="cls-1" x="325.05" width="1.93" height="45.6" transform="translate(652.03 45.6) rotate(180)"/></svg>