<?xml version="1.0" encoding="UTF-8"?><svg id="Layer_1" xmlns="http://www.w3.org/2000/svg" viewBox="0 0 307.76 56.41"><defs><style>.cls-1{fill:#00ff73;}.cls-2{fill:#fff;}.cls-3{fill:#e5e5e5;}</style></defs><path class="cls-2" d="M25.01,10.71c-.57-4.39-4.77-4.86-8.45-4.86s-6.23,1.7-6.23,3.96c0,1.79,1.51,2.79,3.87,3.16l11.47,1.84c6.13.99,10.81,3.3,10.81,9.44s-4.25,11.32-17.51,11.32c-8.21,0-18.88-1.03-18.97-11.55h10.29c.09,4.63,4.72,5.43,8.68,5.43,4.29,0,7.22-1.27,7.22-4.2,0-2.6-2.08-3.3-5.71-3.87l-8.35-1.27c-5.85-.9-11.51-2.64-11.51-9.53C.61,3.07,6.75,0,17.32,0c6.94,0,17.22,1.18,17.84,10.71h-10.15Z"/><path class="cls-2" d="M63.32,9.34h8.02v34.68h-8.31v-12.22h-.09c-1.6,2.26-5.05,3.78-9.72,3.78-7.98,0-14.11-5.38-14.11-13.59,0-8.87,6.47-13.31,14.68-13.31,3.49,0,6.28.71,9.44,4.11h.09v-3.44h0ZM55.53,29.45c4.15,0,7.79-2.5,7.79-7.31s-3.63-7.31-7.79-7.31-7.83,2.5-7.83,7.31,3.63,7.31,7.83,7.31Z"/><path class="cls-2" d="M98.28,31.24h-.09c-1.51,2.12-5.47,4.34-10.33,4.34-4.29,0-10.85-1.65-10.85-9.11V9.34h8.31v14.63c0,3.49,1.84,5.19,5.66,5.19,4.48,0,7.03-2.5,7.03-7.17v-12.64h8.31v25.29h-8.02v-3.4s-.02,0-.02,0Z"/><path class="cls-2" d="M112.05,17.08c.99-7.79,8.16-8.68,14.96-8.68,11.89,0,14.44,3.87,14.44,8.59v12.55c0,2.22.38,3.82.94,5.1h-8.31c-.28-.9-.52-1.79-.57-2.69-2.83,2.83-8.12,3.63-11.84,3.63-6.61,0-11.23-2.31-11.23-8.21s5.43-7.46,10.48-7.79l8.82-.62c2.55-.19,3.4-.61,3.4-2.64s-1.7-3.02-6.51-3.02c-3.54,0-5.38.28-6.56,3.78h-8.02,0ZM133.43,22.32c-1.56.76-3.26.94-4.91,1.09l-4.81.42c-2.93.24-4.39,1.04-4.39,3.3s2.12,3.54,5.24,3.54c4.2,0,8.87-2.03,8.87-6.28v-2.08h0Z"/><path class="cls-2" d="M169.94,31.48h-.09c-2.69,3.26-6.23,4.11-10,4.11-7.88,0-14.11-4.48-14.11-13.31,0-8.21,6.13-13.59,14.11-13.59,4.67,0,8.12,1.51,9.72,3.78h.09V.38h8.3v34.26h-8.02v-3.16ZM162.16,29.45c4.15,0,7.78-2.5,7.78-7.31s-3.63-7.31-7.78-7.31-7.83,2.5-7.83,7.31,3.63,7.31,7.83,7.31Z"/><path class="cls-3" d="M206.79,24.82h-16.52l-4.29,9.82h-5.38L195.85.94h5.71l15.24,33.69h-5.71l-4.29-9.82h-.01ZM198.49,5.57l-6.32,14.91h12.79l-6.46-14.91h0Z"/><path class="cls-3" d="M219.48,9.91h4.72v3.45h.09c1.84-2.6,5.76-4.01,9.39-4.01,7.46,0,13.45,4.77,13.45,13.07s-5.99,13.07-13.45,13.07c-3.68,0-7.5-1.32-9.39-4.01h-.09v12.69h-4.72V9.91ZM233.07,13.31c-6.42,0-9.15,4.44-9.15,9.11,0,5.66,3.63,9.11,9.15,9.11s9.06-3.44,9.06-9.11c0-4.67-2.69-9.11-9.06-9.11Z"/><path class="cls-3" d="M251.8,9.91h4.72v3.45h.09c1.84-2.6,5.76-4.01,9.39-4.01,7.46,0,13.45,4.77,13.45,13.07s-5.99,13.07-13.45,13.07c-3.68,0-7.5-1.32-9.39-4.01h-.09v12.69h-4.72V9.91h0ZM265.39,13.31c-6.42,0-9.15,4.44-9.15,9.11,0,5.66,3.63,9.11,9.15,9.11s9.06-3.44,9.06-9.11c0-4.67-2.69-9.11-9.06-9.11Z"/><path class="cls-3" d="M287.42,26.85c0,2.22,1.79,4.96,7.79,4.96s7.55-2.12,7.55-3.87-.9-2.78-4.67-3.3l-7.79-1.04c-3.54-.47-6.7-2.74-6.7-6.56,0-5,4.34-7.98,11.28-7.98,8.12,0,11.66,3.49,12.08,8.3h-4.72c-.14-2.5-2.5-4.63-7.41-4.63-3.02,0-6.51.85-6.51,3.78,0,1.65.75,2.6,4.11,3.07l6.7.9c6.23.85,8.63,3.07,8.63,6.56,0,5.76-4.86,8.45-12.41,8.45-5.66,0-12.13-1.46-12.65-8.64h4.72Z"/><path class="cls-3" d="M101.26,44.03v1.81h-5.43v3.39h4.27v1.75h-4.27v3.46h5.43v1.82h-7.72v-12.24h7.72Z"/><path class="cls-3" d="M115.37,50.15c0,.9-.15,1.72-.45,2.47-.3.75-.72,1.4-1.26,1.94-.54.54-1.19.96-1.96,1.26s-1.61.45-2.53.45h-4.67v-12.24h4.67c.93,0,1.77.15,2.53.45s1.41.72,1.96,1.26c.54.54.96,1.18,1.26,1.93.3.75.45,1.57.45,2.47ZM113.04,50.15c0-.67-.09-1.27-.27-1.81-.18-.53-.44-.98-.77-1.35-.33-.37-.74-.65-1.21-.85-.48-.2-1.01-.3-1.61-.3h-2.38v8.62h2.38c.6,0,1.14-.1,1.61-.3.48-.2.88-.48,1.21-.85.33-.37.59-.82.77-1.35.18-.53.27-1.14.27-1.81Z"/><path class="cls-3" d="M123.35,54.43c.44,0,.83-.07,1.18-.22s.64-.35.88-.62.42-.59.55-.97c.13-.38.19-.8.19-1.27v-7.33h2.28v7.33c0,.73-.12,1.4-.35,2.02-.23.62-.57,1.15-1.01,1.6s-.97.8-1.6,1.05c-.63.25-1.33.38-2.12.38s-1.49-.13-2.12-.38c-.63-.25-1.16-.6-1.6-1.05s-.77-.98-1.01-1.6-.35-1.29-.35-2.02v-7.33h2.28v7.32c0,.47.06.89.19,1.27s.31.7.55.97.53.48.88.62c.35.15.74.22,1.18.22Z"/><path class="cls-1" d="M143.11,46.26c-.06.12-.13.21-.22.26s-.18.08-.29.08-.24-.04-.38-.13-.31-.18-.5-.29c-.19-.11-.42-.2-.67-.29-.26-.09-.56-.13-.91-.13-.32,0-.59.04-.83.11-.23.08-.43.18-.59.32-.16.14-.28.3-.36.49-.08.19-.12.4-.12.62,0,.29.08.53.24.72.16.19.37.36.64.49.27.14.57.26.91.36.34.11.68.22,1.04.34s.7.26,1.04.42c.34.16.64.36.91.61.27.25.48.55.64.9.16.36.24.79.24,1.3,0,.55-.1,1.07-.28,1.55-.19.48-.47.9-.83,1.26-.36.36-.81.64-1.33.85-.52.21-1.13.31-1.8.31-.39,0-.77-.04-1.15-.11-.38-.08-.74-.19-1.09-.33-.35-.14-.67-.31-.97-.51-.3-.2-.57-.42-.81-.66l.66-1.09c.06-.08.14-.15.22-.2s.19-.08.29-.08c.14,0,.29.06.46.17.16.12.36.24.58.39.22.14.48.27.79.39.3.12.66.17,1.09.17.65,0,1.15-.15,1.51-.46.36-.31.53-.75.53-1.33,0-.32-.08-.58-.24-.79-.16-.2-.37-.37-.64-.51-.27-.14-.57-.25-.91-.35-.34-.1-.68-.2-1.03-.31s-.69-.25-1.03-.41c-.34-.16-.64-.36-.91-.62-.27-.25-.48-.57-.64-.95-.16-.38-.24-.85-.24-1.41,0-.45.09-.88.27-1.3.18-.42.44-.8.78-1.13.34-.33.76-.59,1.26-.79s1.06-.3,1.7-.3c.72,0,1.39.11,2,.34.61.23,1.13.54,1.56.95l-.56,1.07Z"/><path class="cls-1" d="M155.32,53.38c.12,0,.23.05.32.14l.9.97c-.5.62-1.11,1.09-1.83,1.41-.72.33-1.6.49-2.61.49-.91,0-1.73-.16-2.45-.47-.73-.31-1.34-.74-1.86-1.29-.51-.55-.91-1.21-1.18-1.98-.27-.77-.41-1.6-.41-2.51s.15-1.76.46-2.53c.31-.76.73-1.42,1.29-1.98s1.22-.98,1.99-1.29c.77-.31,1.62-.46,2.55-.46s1.7.15,2.38.44c.68.29,1.26.68,1.75,1.16l-.76,1.06c-.04.07-.1.13-.17.18-.07.05-.17.08-.29.08s-.26-.05-.4-.15c-.14-.1-.31-.21-.52-.33s-.47-.23-.79-.33c-.32-.1-.72-.15-1.21-.15-.58,0-1.1.1-1.59.3s-.9.49-1.24.86c-.35.37-.62.83-.81,1.36-.19.53-.29,1.13-.29,1.8s.1,1.3.29,1.84c.19.54.46.99.79,1.35.33.37.72.65,1.18.84.45.19.94.29,1.46.29.31,0,.59-.02.84-.05.25-.03.48-.09.69-.16.21-.07.41-.17.6-.28.19-.12.38-.26.56-.43.06-.05.12-.09.18-.12s.13-.05.2-.05Z"/><path class="cls-1" d="M171.26,50.15c0,.9-.15,1.73-.45,2.49s-.72,1.43-1.26,1.98c-.54.56-1.19.99-1.95,1.31-.76.31-1.61.47-2.53.47s-1.77-.16-2.54-.47c-.76-.31-1.42-.75-1.96-1.31-.54-.56-.97-1.22-1.27-1.98-.3-.76-.45-1.6-.45-2.49s.15-1.73.45-2.49c.3-.76.72-1.43,1.27-1.99.54-.56,1.2-.99,1.96-1.31s1.61-.47,2.54-.47,1.77.16,2.53.47,1.41.75,1.95,1.31c.54.56.96,1.22,1.26,1.98s.45,1.6.45,2.49ZM168.93,50.15c0-.67-.09-1.27-.27-1.81s-.43-.99-.77-1.36c-.33-.37-.74-.66-1.21-.85-.48-.2-1.01-.3-1.61-.3s-1.14.1-1.62.3c-.48.2-.89.48-1.22.85s-.59.83-.77,1.36c-.18.53-.27,1.14-.27,1.81s.09,1.27.27,1.81c.18.53.44.98.77,1.35.34.37.74.65,1.22.85.48.2,1.02.3,1.62.3s1.14-.1,1.61-.3c.48-.2.88-.48,1.21-.85.33-.37.59-.82.77-1.35s.27-1.14.27-1.81Z"/><path class="cls-1" d="M186.07,50.15c0,.9-.15,1.73-.45,2.49s-.72,1.43-1.26,1.98c-.54.56-1.19.99-1.95,1.31-.76.31-1.61.47-2.53.47s-1.77-.16-2.54-.47c-.76-.31-1.42-.75-1.96-1.31-.54-.56-.97-1.22-1.27-1.98-.3-.76-.45-1.6-.45-2.49s.15-1.73.45-2.49c.3-.76.72-1.43,1.27-1.99.54-.56,1.2-.99,1.96-1.31s1.61-.47,2.54-.47,1.77.16,2.53.47,1.41.75,1.95,1.31c.54.56.96,1.22,1.26,1.98s.45,1.6.45,2.49ZM183.73,50.15c0-.67-.09-1.27-.27-1.81s-.43-.99-.77-1.36c-.33-.37-.74-.66-1.21-.85-.48-.2-1.01-.3-1.61-.3s-1.14.1-1.62.3c-.48.2-.89.48-1.22.85s-.59.83-.77,1.36c-.18.53-.27,1.14-.27,1.81s.09,1.27.27,1.81c.18.53.44.98.77,1.35.34.37.74.65,1.22.85.48.2,1.02.3,1.62.3s1.14-.1,1.61-.3c.48-.2.88-.48,1.21-.85.33-.37.59-.82.77-1.35s.27-1.14.27-1.81Z"/><path class="cls-1" d="M191.48,51.96v4.31h-2.28v-12.24h3.99c.82,0,1.53.1,2.12.29.6.19,1.09.46,1.48.8.39.34.68.76.86,1.24.19.48.28,1,.28,1.57s-.1,1.14-.3,1.63c-.2.49-.49.92-.89,1.27-.4.36-.89.63-1.48.83-.59.2-1.29.3-2.08.3h-1.71ZM191.48,50.18h1.71c.42,0,.78-.05,1.09-.16.31-.1.57-.25.77-.45.2-.19.36-.43.46-.71.1-.28.15-.59.15-.94s-.05-.62-.15-.89c-.1-.27-.25-.49-.46-.68s-.46-.33-.77-.43c-.31-.1-.67-.15-1.09-.15h-1.71v4.39Z"/></svg>