<?xml version="1.0" encoding="UTF-8"?>
<svg xmlns="http://www.w3.org/2000/svg" version="1.1" viewBox="0 0 307.76 61.63">
  <defs>
    <style>
      .cls-1 {
        opacity: .85;
      }

      .cls-2 {
        fill: #00ff73;
      }

      .cls-3 {
        fill: #ff00f3;
      }

      .cls-4 {
        fill: #0092a5;
      }

      .cls-5, .cls-6 {
        fill: #fff;
      }

      .cls-6 {
        font-family: Lato-Bold, Lato;
        font-size: 12px;
        font-weight: 700;
        letter-spacing: .07em;
      }

      .cls-7 {
        fill: #e5e5e5;
      }

      .cls-8 {
        fill: #00edff;
      }
    </style>
  </defs>
  <!-- Generator: Adobe Illustrator 28.6.0, SVG Export Plug-In . SVG Version: 1.2.0 Build 709)  -->
  <g>
    <g id="Layer_1">
      <g>
        <path class="cls-5" d="M25.01,10.71c-.57-4.39-4.77-4.86-8.45-4.86s-6.23,1.7-6.23,3.96c0,1.79,1.51,2.79,3.87,3.16l11.47,1.84c6.13.99,10.81,3.3,10.81,9.44s-4.25,11.32-17.51,11.32C10.76,35.58.09,34.54,0,24.02h10.29c.09,4.63,4.72,5.43,8.68,5.43,4.29,0,7.22-1.27,7.22-4.2,0-2.6-2.08-3.3-5.71-3.87l-8.35-1.27c-5.85-.9-11.51-2.64-11.51-9.53C.61,3.07,6.75,0,17.32,0c6.94,0,17.22,1.18,17.84,10.71h-10.15Z"/>
        <path class="cls-5" d="M63.32,9.34h8.02v34.68h-8.31v-12.22h-.09c-1.6,2.26-5.05,3.78-9.72,3.78-7.98,0-14.11-5.38-14.11-13.59,0-8.87,6.47-13.31,14.68-13.31,3.49,0,6.28.71,9.44,4.11h.09v-3.44ZM55.53,29.45c4.15,0,7.79-2.5,7.79-7.31s-3.63-7.31-7.79-7.31-7.83,2.5-7.83,7.31,3.63,7.31,7.83,7.31Z"/>
        <path class="cls-5" d="M98.28,31.24h-.09c-1.51,2.12-5.47,4.34-10.33,4.34-4.29,0-10.85-1.65-10.85-9.11V9.34h8.31v14.63c0,3.49,1.84,5.19,5.66,5.19,4.48,0,7.03-2.5,7.03-7.17v-12.64h8.31v25.29h-8.02v-3.4Z"/>
        <path class="cls-5" d="M112.05,17.08c.99-7.79,8.16-8.68,14.96-8.68,11.89,0,14.44,3.87,14.44,8.59v12.55c0,2.22.38,3.82.94,5.1h-8.31c-.28-.9-.52-1.79-.57-2.69-2.83,2.83-8.12,3.63-11.84,3.63-6.61,0-11.23-2.31-11.23-8.21s5.43-7.46,10.48-7.79l8.82-.62c2.55-.19,3.4-.61,3.4-2.64s-1.7-3.02-6.51-3.02c-3.54,0-5.38.28-6.56,3.78h-8.02ZM133.43,22.32c-1.56.76-3.26.94-4.91,1.09l-4.81.42c-2.93.24-4.39,1.04-4.39,3.3s2.12,3.54,5.24,3.54c4.2,0,8.87-2.03,8.87-6.28v-2.08Z"/>
        <path class="cls-5" d="M169.94,31.48h-.09c-2.69,3.26-6.23,4.11-10,4.11-7.88,0-14.11-4.48-14.11-13.31,0-8.21,6.13-13.59,14.11-13.59,4.67,0,8.12,1.51,9.72,3.78h.09V.38h8.3v34.26h-8.02v-3.16ZM162.16,29.45c4.15,0,7.78-2.5,7.78-7.31s-3.63-7.31-7.78-7.31-7.83,2.5-7.83,7.31,3.63,7.31,7.83,7.31Z"/>
        <g>
          <path class="cls-7" d="M206.79,24.82h-16.52l-4.29,9.82h-5.38L195.85.94h5.71l15.24,33.69h-5.71l-4.29-9.82ZM198.49,5.57l-6.32,14.91h12.79l-6.46-14.91Z"/>
          <path class="cls-7" d="M219.48,9.91h4.72v3.45h.09c1.84-2.6,5.76-4.01,9.39-4.01,7.46,0,13.45,4.77,13.45,13.07s-5.99,13.07-13.45,13.07c-3.68,0-7.5-1.32-9.39-4.01h-.09v12.69h-4.72V9.91ZM233.07,13.31c-6.42,0-9.15,4.44-9.15,9.11,0,5.66,3.63,9.11,9.15,9.11s9.06-3.44,9.06-9.11c0-4.67-2.69-9.11-9.06-9.11Z"/>
          <path class="cls-7" d="M251.8,9.91h4.72v3.45h.09c1.84-2.6,5.76-4.01,9.39-4.01,7.46,0,13.45,4.77,13.45,13.07s-5.99,13.07-13.45,13.07c-3.68,0-7.5-1.32-9.39-4.01h-.09v12.69h-4.72V9.91ZM265.39,13.31c-6.42,0-9.15,4.44-9.15,9.11,0,5.66,3.63,9.11,9.15,9.11s9.06-3.44,9.06-9.11c0-4.67-2.69-9.11-9.06-9.11Z"/>
          <path class="cls-7" d="M287.42,26.85c0,2.22,1.79,4.96,7.79,4.96s7.55-2.12,7.55-3.87-.9-2.78-4.67-3.3l-7.79-1.04c-3.54-.47-6.7-2.74-6.7-6.56,0-5,4.34-7.98,11.28-7.98,8.12,0,11.66,3.49,12.08,8.3h-4.72c-.14-2.5-2.5-4.63-7.41-4.63-3.02,0-6.51.85-6.51,3.78,0,1.65.75,2.6,4.11,3.07l6.7.9c6.23.85,8.63,3.07,8.63,6.56,0,5.76-4.86,8.45-12.41,8.45-5.66,0-12.13-1.46-12.65-8.64h4.72Z"/>
        </g>
      </g>
      <path class="cls-4" d="M-457.02-433.33"/>
      <g class="cls-1">
        <path class="cls-2" d="M10.07-195.76c-.11.21-.23.36-.37.44s-.3.13-.49.13-.41-.07-.65-.22c-.24-.15-.52-.31-.85-.49-.33-.18-.71-.35-1.14-.5-.44-.15-.95-.22-1.54-.22-.54,0-1,.06-1.4.19s-.73.31-1,.54c-.27.23-.48.5-.61.83s-.2.67-.2,1.05c0,.49.14.89.41,1.22.27.32.63.6,1.08.83.45.23.96.43,1.53.62.57.18,1.16.38,1.76.58.6.21,1.18.44,1.76.72.57.27,1.08.62,1.53,1.03.45.42.81.92,1.08,1.53.27.6.41,1.33.41,2.19,0,.94-.16,1.81-.48,2.63-.32.82-.79,1.53-1.41,2.14-.62.61-1.37,1.08-2.26,1.43-.89.35-1.91.52-3.05.52-.66,0-1.31-.06-1.95-.19-.64-.13-1.25-.31-1.84-.55-.59-.24-1.14-.53-1.65-.86-.51-.33-.97-.71-1.37-1.12l1.12-1.85c.1-.13.23-.25.38-.34.15-.09.31-.14.49-.14.24,0,.5.1.77.29.28.2.6.41.98.65.38.24.82.46,1.33.65.51.2,1.13.29,1.84.29,1.1,0,1.95-.26,2.55-.78.6-.52.9-1.27.9-2.24,0-.54-.14-.99-.41-1.33s-.63-.63-1.08-.87-.96-.43-1.53-.59c-.57-.16-1.16-.34-1.75-.53-.59-.19-1.18-.42-1.75-.69-.57-.27-1.08-.62-1.53-1.05-.45-.43-.81-.97-1.08-1.61-.27-.65-.41-1.44-.41-2.39,0-.75.15-1.49.45-2.21.3-.72.74-1.35,1.32-1.91s1.29-1,2.13-1.33c.84-.33,1.8-.5,2.88-.5,1.22,0,2.35.19,3.38.57s1.91.92,2.64,1.61l-.95,1.82Z"/>
        <path class="cls-2" d="M30.74-183.69c.21,0,.39.08.54.24l1.52,1.65c-.84,1.04-1.88,1.84-3.1,2.39-1.23.55-2.7.83-4.42.83-1.54,0-2.92-.26-4.15-.79-1.23-.53-2.28-1.26-3.15-2.19-.87-.94-1.54-2.05-2-3.35-.46-1.3-.7-2.72-.7-4.26s.26-2.98.77-4.28c.52-1.3,1.24-2.41,2.18-3.35.94-.94,2.06-1.67,3.36-2.19,1.3-.52,2.75-.78,4.32-.78s2.88.25,4.04.74c1.15.49,2.14,1.14,2.96,1.96l-1.29,1.79c-.08.11-.17.21-.29.3s-.28.13-.49.13c-.22,0-.44-.09-.67-.26s-.52-.36-.88-.56c-.35-.2-.8-.39-1.34-.56s-1.23-.26-2.06-.26c-.98,0-1.87.17-2.69.51-.82.34-1.52.82-2.11,1.46s-1.05,1.4-1.38,2.3c-.33.9-.5,1.92-.5,3.05s.17,2.2.5,3.11c.33.91.78,1.67,1.34,2.29.56.62,1.23,1.1,1.99,1.43.76.33,1.59.5,2.47.5.53,0,1-.03,1.43-.09.42-.06.82-.15,1.18-.27s.7-.28,1.02-.48.64-.44.95-.72c.1-.09.2-.16.3-.21.1-.05.22-.08.34-.08Z"/>
        <path class="cls-2" d="M57.75-189.17c0,1.52-.25,2.93-.76,4.22-.51,1.3-1.22,2.42-2.14,3.36-.92.95-2.02,1.68-3.31,2.21-1.29.53-2.72.8-4.29.8s-3-.27-4.29-.8c-1.29-.53-2.4-1.27-3.33-2.21-.92-.95-1.64-2.07-2.14-3.36-.51-1.29-.76-2.7-.76-4.22s.25-2.93.76-4.22c.51-1.29,1.22-2.42,2.14-3.36.92-.95,2.03-1.68,3.33-2.22,1.3-.53,2.73-.79,4.29-.79s3,.27,4.29.8c1.29.54,2.39,1.27,3.31,2.21.92.94,1.63,2.06,2.14,3.35.51,1.3.76,2.7.76,4.22ZM53.79-189.17c0-1.14-.15-2.16-.45-3.06-.3-.9-.73-1.67-1.3-2.3-.56-.63-1.25-1.11-2.06-1.45-.81-.33-1.72-.5-2.73-.5s-1.93.17-2.74.5c-.81.33-1.5.82-2.07,1.45-.57.63-1.01,1.4-1.31,2.3-.31.9-.46,1.92-.46,3.06s.15,2.16.46,3.06c.31.9.74,1.67,1.31,2.29.57.63,1.26,1.11,2.07,1.44.81.33,1.73.5,2.74.5s1.92-.17,2.73-.5c.81-.33,1.49-.81,2.06-1.44.56-.63,1-1.39,1.3-2.29.3-.9.45-1.92.45-3.06Z"/>
        <path class="cls-2" d="M82.82-189.17c0,1.52-.25,2.93-.76,4.22-.51,1.3-1.22,2.42-2.14,3.36-.92.95-2.02,1.68-3.31,2.21s-2.72.8-4.29.8-3-.27-4.29-.8c-1.29-.53-2.4-1.27-3.33-2.21-.92-.95-1.64-2.07-2.14-3.36-.51-1.29-.76-2.7-.76-4.22s.25-2.93.76-4.22c.51-1.29,1.22-2.42,2.14-3.36.92-.95,2.03-1.68,3.33-2.22,1.3-.53,2.73-.79,4.29-.79s3,.27,4.29.8,2.39,1.27,3.31,2.21c.92.94,1.63,2.06,2.14,3.35.51,1.3.76,2.7.76,4.22ZM78.87-189.17c0-1.14-.15-2.16-.45-3.06-.3-.9-.73-1.67-1.3-2.3-.56-.63-1.25-1.11-2.06-1.45-.81-.33-1.72-.5-2.73-.5s-1.93.17-2.74.5c-.81.33-1.5.82-2.07,1.45s-1.01,1.4-1.31,2.3c-.31.9-.46,1.92-.46,3.06s.15,2.16.46,3.06c.31.9.74,1.67,1.31,2.29s1.26,1.11,2.07,1.44c.81.33,1.73.5,2.74.5s1.92-.17,2.73-.5c.81-.33,1.49-.81,2.06-1.44.56-.63,1-1.39,1.3-2.29.3-.9.45-1.92.45-3.06Z"/>
        <path class="cls-2" d="M92-186.1v7.3h-3.86v-20.73h6.75c1.39,0,2.59.16,3.6.49s1.85.78,2.51,1.36c.66.58,1.15,1.28,1.46,2.09s.47,1.7.47,2.67-.17,1.92-.5,2.76c-.33.84-.84,1.56-1.5,2.16s-1.51,1.07-2.51,1.41c-1,.33-2.18.5-3.53.5h-2.9ZM92-189.11h2.9c.71,0,1.32-.09,1.85-.26s.96-.43,1.3-.76c.34-.33.6-.73.77-1.2.17-.47.26-1,.26-1.58s-.09-1.06-.26-1.5-.43-.83-.77-1.15-.78-.56-1.3-.72-1.14-.25-1.85-.25h-2.9v7.44Z"/>
      </g>
      <g>
        <path class="cls-3" d="M137.94-186.46v7.52h-3.97v-21.35h6.96c1.43,0,2.66.17,3.71.5,1.04.34,1.91.8,2.58,1.4.68.6,1.18,1.32,1.51,2.16s.49,1.75.49,2.75-.17,1.98-.52,2.84c-.35.86-.86,1.6-1.55,2.22-.69.62-1.55,1.1-2.58,1.45-1.04.34-2.24.52-3.63.52h-2.98ZM137.94-189.56h2.98c.73,0,1.36-.09,1.91-.27.54-.18.99-.44,1.34-.78.35-.34.62-.75.8-1.24.18-.49.26-1.03.26-1.63s-.09-1.09-.26-1.55c-.18-.46-.44-.86-.8-1.18-.36-.32-.8-.57-1.34-.75-.54-.17-1.18-.26-1.91-.26h-2.98v7.67Z"/>
        <path class="cls-3" d="M163.11-182.14c.77,0,1.45-.13,2.06-.38s1.12-.62,1.54-1.08.74-1.02.96-1.68.33-1.4.33-2.21v-12.79h3.97v12.79c0,1.27-.2,2.44-.61,3.52s-1,2.01-1.76,2.79c-.77.78-1.7,1.39-2.79,1.83-1.09.44-2.32.66-3.69.66s-2.6-.22-3.69-.66c-1.09-.44-2.02-1.05-2.78-1.83-.76-.78-1.35-1.71-1.76-2.79-.41-1.08-.61-2.25-.61-3.52v-12.79h3.97v12.77c0,.82.11,1.56.33,2.21.22.66.54,1.22.95,1.69s.92.83,1.53,1.09,1.29.38,2.06.38Z"/>
        <path class="cls-3" d="M182.2-182.22h8.55v3.28h-12.52v-21.35h3.97v18.08Z"/>
        <path class="cls-3" d="M207.16-196.41c-.11.22-.24.37-.38.46s-.31.13-.51.13-.42-.08-.66-.23c-.25-.15-.54-.32-.87-.51-.33-.19-.73-.36-1.17-.51-.45-.15-.98-.23-1.59-.23-.55,0-1.03.07-1.44.2-.41.13-.75.32-1.03.55-.28.24-.49.52-.63.85-.14.33-.21.69-.21,1.09,0,.5.14.92.42,1.26.28.34.65.62,1.12.86.46.24.99.45,1.58.63s1.19.39,1.81.6,1.22.46,1.81.74c.59.28,1.12.63,1.58,1.06.46.43.83.95,1.12,1.57.28.62.42,1.37.42,2.26,0,.96-.17,1.87-.5,2.71-.33.84-.81,1.58-1.45,2.2-.63.63-1.41,1.12-2.33,1.48s-1.96.54-3.14.54c-.68,0-1.35-.07-2.01-.2-.66-.13-1.29-.32-1.9-.57-.6-.25-1.17-.54-1.7-.89-.53-.34-1-.73-1.41-1.15l1.15-1.9c.11-.14.24-.25.39-.35.15-.09.32-.14.51-.14.25,0,.51.1.8.3s.62.43,1.01.67c.39.25.85.47,1.37.67.53.2,1.16.3,1.9.3,1.13,0,2.01-.27,2.63-.8.62-.54.93-1.31.93-2.31,0-.56-.14-1.02-.42-1.37-.28-.35-.65-.65-1.12-.89-.46-.24-.99-.44-1.58-.61-.59-.17-1.19-.35-1.8-.55s-1.21-.43-1.8-.71-1.12-.64-1.58-1.08c-.46-.44-.84-1-1.12-1.66-.28-.66-.42-1.48-.42-2.46,0-.78.15-1.53.46-2.27.31-.74.76-1.39,1.36-1.96s1.33-1.03,2.19-1.37c.87-.34,1.86-.52,2.97-.52,1.26,0,2.42.2,3.49.59,1.06.39,1.97.95,2.72,1.65l-.97,1.87Z"/>
        <path class="cls-3" d="M227.24-200.29v3.16h-9.47v5.92h7.46v3.06h-7.46v6.04h9.47v3.18h-13.47v-21.35h13.47Z"/>
      </g>
      <g class="cls-1">
        <path class="cls-8" d="M263.29-179.07v-20.46h7.06c1.34,0,2.48.13,3.43.38.95.25,1.73.62,2.34,1.09.61.47,1.05,1.04,1.34,1.71s.42,1.43.42,2.26c0,.48-.07.94-.21,1.38-.14.44-.36.85-.66,1.23s-.67.73-1.13,1.04c-.46.31-1,.58-1.64.79,2.81.63,4.22,2.15,4.22,4.56,0,.87-.16,1.67-.5,2.4-.33.74-.81,1.37-1.44,1.9-.63.53-1.41.95-2.34,1.25-.93.3-1.98.45-3.17.45h-7.73ZM267.09-190.68h3.04c1.29,0,2.27-.23,2.94-.71.67-.47,1-1.22,1-2.25s-.3-1.83-.91-2.28c-.6-.45-1.55-.68-2.83-.68h-3.25v5.92ZM267.09-188.04v6h3.86c.71,0,1.3-.09,1.78-.26s.86-.4,1.15-.68.5-.61.62-.99.19-.78.19-1.2c0-.44-.07-.84-.21-1.2-.14-.35-.36-.66-.67-.91-.3-.25-.69-.44-1.16-.57-.47-.13-1.04-.2-1.71-.2h-3.85Z"/>
        <path class="cls-8" d="M288.36-182.21h8.19v3.14h-12v-20.46h3.81v17.32Z"/>
        <path class="cls-8" d="M320.01-179.07h-2.94c-.33,0-.6-.08-.81-.25-.21-.16-.37-.37-.46-.61l-1.53-4.17h-8.48l-1.53,4.17c-.08.22-.23.42-.45.59-.22.18-.49.27-.81.27h-2.96l8.04-20.46h3.89l8.04,20.46ZM306.76-186.8h6.53l-2.49-6.81c-.11-.3-.24-.66-.38-1.07-.14-.41-.27-.85-.4-1.34-.13.48-.26.93-.39,1.34-.13.42-.25.78-.37,1.09l-2.49,6.78Z"/>
        <path class="cls-8" d="M339.57-199.53v1.4c0,.43-.12.83-.37,1.19l-10.5,14.83h10.61v3.04h-15.55v-1.5c0-.19.03-.37.1-.55s.15-.34.26-.49l10.53-14.9h-10.22v-3.03h15.14Z"/>
        <path class="cls-8" d="M358.15-199.53v3.03h-9.07v5.67h7.15v2.93h-7.15v5.79h9.07v3.04h-12.91v-20.46h12.91Z"/>
      </g>
      <text class="cls-6" transform="translate(-171.31 -124.05)"><tspan x="0" y="0">Brand font - Lato Bold 75 wide</tspan></text>
      <g>
        <rect class="cls-2" x="-83.52" y="-606" width="89.77" height="89.77" rx="-213.23" ry="-213.23"/>
        <path class="cls-5" d="M-26.77-572.86c-.94-7.27-7.89-8.05-13.99-8.05s-10.31,2.81-10.31,6.56c0,2.97,2.5,4.61,6.41,5.24l18.98,3.05c10.16,1.64,17.89,5.47,17.89,15.63s-7.03,18.75-28.98,18.75c-13.59,0-31.25-1.72-31.41-19.14h17.03c.15,7.66,7.81,8.99,14.37,8.99,7.11,0,11.95-2.11,11.95-6.95,0-4.3-3.44-5.47-9.45-6.41l-13.83-2.11c-9.69-1.48-19.06-4.37-19.06-15.78,0-12.42,10.16-17.5,27.66-17.5,11.48,0,28.51,1.95,29.53,17.73h-16.8Z"/>
      </g>
      <g>
        <rect class="cls-8" x="-83.52" y="-366.15" width="89.77" height="89.77" rx="-93.3" ry="-93.3"/>
        <path class="cls-5" d="M-26.77-333.02c-.94-7.27-7.89-8.05-13.99-8.05s-10.31,2.81-10.31,6.56c0,2.97,2.5,4.61,6.41,5.24l18.98,3.05c10.16,1.64,17.89,5.47,17.89,15.63s-7.03,18.75-28.98,18.75c-13.59,0-31.25-1.72-31.41-19.14h17.03c.15,7.66,7.81,8.99,14.37,8.99,7.11,0,11.95-2.11,11.95-6.95,0-4.3-3.44-5.47-9.45-6.41l-13.83-2.11c-9.69-1.48-19.06-4.37-19.06-15.78,0-12.42,10.16-17.5,27.66-17.5,11.48,0,28.51,1.95,29.53,17.73h-16.8Z"/>
      </g>
      <g>
        <rect class="cls-3" x="-83.52" y="-484.33" width="89.77" height="89.77" rx="-152.39" ry="-152.39"/>
        <path class="cls-5" d="M-26.77-451.19c-.94-7.27-7.89-8.05-13.99-8.05s-10.31,2.81-10.31,6.56c0,2.97,2.5,4.61,6.41,5.24l18.98,3.05c10.16,1.64,17.89,5.47,17.89,15.63s-7.03,18.75-28.98,18.75c-13.59,0-31.25-1.72-31.41-19.14h17.03c.15,7.66,7.81,8.99,14.37,8.99,7.11,0,11.95-2.11,11.95-6.95,0-4.3-3.44-5.47-9.45-6.41l-13.83-2.11c-9.69-1.48-19.06-4.37-19.06-15.78,0-12.42,10.16-17.5,27.66-17.5,11.48,0,28.51,1.95,29.53,17.73h-16.8Z"/>
      </g>
      <g>
        <path class="cls-2" d="M-129.66-179.18h-3.91v-9.13h-9.79v9.13h-3.91v-20.88h3.91v8.98h9.79v-8.98h3.91v20.88Z"/>
        <path class="cls-2" d="M-110.11-200.06v3.09h-9.26v5.79h7.29v2.99h-7.29v5.91h9.26v3.11h-13.17v-20.88h13.17Z"/>
        <path class="cls-2" d="M-86.22-179.18h-3c-.34,0-.61-.08-.83-.25-.22-.17-.37-.38-.47-.63l-1.56-4.26h-8.65l-1.56,4.26c-.08.22-.23.42-.46.61-.23.18-.5.27-.83.27h-3.02l8.2-20.88h3.97l8.2,20.88ZM-99.74-187.06h6.66l-2.54-6.95c-.12-.31-.24-.67-.38-1.09-.14-.42-.28-.87-.41-1.36-.14.49-.27.95-.4,1.37-.13.42-.26.79-.38,1.11l-2.54,6.92Z"/>
        <path class="cls-2" d="M-78.01-182.38h8.36v3.21h-12.25v-20.88h3.89v17.68Z"/>
        <path class="cls-2" d="M-52.62-200.06v3.19h-6.28v17.69h-3.88v-17.69h-6.31v-3.19h16.48Z"/>
        <path class="cls-2" d="M-30.37-179.18h-3.91v-9.13h-9.79v9.13h-3.91v-20.88h3.91v8.98h9.79v-8.98h3.91v20.88Z"/>
      </g>
      <g class="cls-1">
        <path class="cls-2" d="M-255.87-490.77c-.11.21-.23.36-.37.44s-.3.13-.49.13-.41-.07-.65-.22c-.24-.15-.52-.31-.85-.49-.33-.18-.71-.35-1.14-.5-.44-.15-.95-.22-1.54-.22-.54,0-1,.06-1.4.19s-.73.31-1,.54c-.27.23-.48.5-.61.83s-.2.67-.2,1.05c0,.49.14.89.41,1.22.27.32.63.6,1.08.83.45.23.96.43,1.53.62.57.18,1.16.38,1.76.58.6.21,1.18.44,1.76.72.57.27,1.08.62,1.53,1.03.45.42.81.92,1.08,1.53.27.6.41,1.33.41,2.19,0,.94-.16,1.81-.48,2.63-.32.82-.79,1.53-1.41,2.14-.62.61-1.37,1.08-2.26,1.43-.89.35-1.91.52-3.05.52-.66,0-1.31-.06-1.95-.19-.64-.13-1.25-.31-1.84-.55-.59-.24-1.14-.53-1.65-.86-.51-.33-.97-.71-1.37-1.12l1.12-1.85c.1-.13.23-.25.38-.34.15-.09.31-.14.49-.14.24,0,.5.1.77.29.28.2.6.41.98.65.38.24.82.46,1.33.65.51.2,1.13.29,1.84.29,1.1,0,1.95-.26,2.55-.78.6-.52.9-1.27.9-2.24,0-.54-.14-.99-.41-1.33s-.63-.63-1.08-.87-.96-.43-1.53-.59c-.57-.16-1.16-.34-1.75-.53-.59-.19-1.18-.42-1.75-.69-.57-.27-1.08-.62-1.53-1.05-.45-.43-.81-.97-1.08-1.61-.27-.65-.41-1.44-.41-2.39,0-.75.15-1.49.45-2.21.3-.72.74-1.35,1.32-1.91s1.29-1,2.13-1.33c.84-.33,1.8-.5,2.88-.5,1.22,0,2.35.19,3.38.57s1.91.92,2.64,1.61l-.95,1.82Z"/>
        <path class="cls-2" d="M-235.2-478.7c.21,0,.39.08.54.24l1.52,1.65c-.84,1.04-1.88,1.84-3.1,2.39-1.23.55-2.7.83-4.42.83-1.54,0-2.92-.26-4.15-.79-1.23-.53-2.28-1.26-3.15-2.19-.87-.94-1.54-2.05-2-3.35-.46-1.3-.7-2.72-.7-4.26s.26-2.98.77-4.28c.52-1.3,1.24-2.41,2.18-3.35.94-.94,2.06-1.67,3.36-2.19,1.3-.52,2.75-.78,4.32-.78s2.88.25,4.04.74c1.15.49,2.14,1.14,2.96,1.96l-1.29,1.79c-.08.11-.17.21-.29.3s-.28.13-.49.13c-.22,0-.44-.09-.67-.26s-.52-.36-.88-.56c-.35-.2-.8-.39-1.34-.56s-1.23-.26-2.06-.26c-.98,0-1.87.17-2.69.51-.82.34-1.52.82-2.11,1.46s-1.05,1.4-1.38,2.3c-.33.9-.5,1.92-.5,3.05s.17,2.2.5,3.11c.33.91.78,1.67,1.34,2.29.56.62,1.23,1.1,1.99,1.43.76.33,1.59.5,2.47.5.53,0,1-.03,1.43-.09.42-.06.82-.15,1.18-.27s.7-.28,1.02-.48.64-.44.95-.72c.1-.09.2-.16.3-.21.1-.05.22-.08.34-.08Z"/>
        <path class="cls-2" d="M-208.19-484.18c0,1.52-.25,2.93-.76,4.22-.51,1.3-1.22,2.42-2.14,3.36-.92.95-2.02,1.68-3.31,2.21-1.29.53-2.72.8-4.29.8s-3-.27-4.29-.8c-1.29-.53-2.4-1.27-3.33-2.21-.92-.95-1.64-2.07-2.14-3.36-.51-1.29-.76-2.7-.76-4.22s.25-2.93.76-4.22c.51-1.29,1.22-2.42,2.14-3.36.92-.95,2.03-1.68,3.33-2.22,1.3-.53,2.73-.79,4.29-.79s3,.27,4.29.8c1.29.54,2.39,1.27,3.31,2.21.92.94,1.63,2.06,2.14,3.35.51,1.3.76,2.7.76,4.22ZM-212.14-484.18c0-1.14-.15-2.16-.45-3.06-.3-.9-.73-1.67-1.3-2.3-.56-.63-1.25-1.11-2.06-1.45-.81-.33-1.72-.5-2.73-.5s-1.93.17-2.74.5c-.81.33-1.5.82-2.07,1.45-.57.63-1.01,1.4-1.31,2.3-.31.9-.46,1.92-.46,3.06s.15,2.16.46,3.06c.31.9.74,1.67,1.31,2.29.57.63,1.26,1.11,2.07,1.44.81.33,1.73.5,2.74.5s1.92-.17,2.73-.5c.81-.33,1.49-.81,2.06-1.44.56-.63,1-1.39,1.3-2.29.3-.9.45-1.92.45-3.06Z"/>
        <path class="cls-2" d="M-183.11-484.18c0,1.52-.25,2.93-.76,4.22-.51,1.3-1.22,2.42-2.14,3.36-.92.95-2.02,1.68-3.31,2.21s-2.72.8-4.29.8-3-.27-4.29-.8c-1.29-.53-2.4-1.27-3.33-2.21-.92-.95-1.64-2.07-2.14-3.36-.51-1.29-.76-2.7-.76-4.22s.25-2.93.76-4.22c.51-1.29,1.22-2.42,2.14-3.36.92-.95,2.03-1.68,3.33-2.22,1.3-.53,2.73-.79,4.29-.79s3,.27,4.29.8,2.39,1.27,3.31,2.21c.92.94,1.63,2.06,2.14,3.35.51,1.3.76,2.7.76,4.22ZM-187.07-484.18c0-1.14-.15-2.16-.45-3.06-.3-.9-.73-1.67-1.3-2.3-.56-.63-1.25-1.11-2.06-1.45-.81-.33-1.72-.5-2.73-.5s-1.93.17-2.74.5c-.81.33-1.5.82-2.07,1.45s-1.01,1.4-1.31,2.3c-.31.9-.46,1.92-.46,3.06s.15,2.16.46,3.06c.31.9.74,1.67,1.31,2.29s1.26,1.11,2.07,1.44c.81.33,1.73.5,2.74.5s1.92-.17,2.73-.5c.81-.33,1.49-.81,2.06-1.44.56-.63,1-1.39,1.3-2.29.3-.9.45-1.92.45-3.06Z"/>
        <path class="cls-2" d="M-173.93-481.11v7.3h-3.86v-20.73h6.75c1.39,0,2.59.16,3.6.49s1.85.78,2.51,1.36c.66.58,1.15,1.28,1.46,2.09s.47,1.7.47,2.67-.17,1.92-.5,2.76c-.33.84-.84,1.56-1.5,2.16s-1.51,1.07-2.51,1.41c-1,.33-2.18.5-3.53.5h-2.9ZM-173.93-484.12h2.9c.71,0,1.32-.09,1.85-.26s.96-.43,1.3-.76c.34-.33.6-.73.77-1.2.17-.47.26-1,.26-1.58s-.09-1.06-.26-1.5-.43-.83-.77-1.15-.78-.56-1.3-.72-1.14-.25-1.85-.25h-2.9v7.44Z"/>
      </g>
      <g>
        <path class="cls-2" d="M-395.6-474.19h-3.91v-9.13h-9.79v9.13h-3.91v-20.88h3.91v8.98h9.79v-8.98h3.91v20.88Z"/>
        <path class="cls-2" d="M-376.04-495.07v3.09h-9.26v5.79h7.29v2.99h-7.29v5.91h9.26v3.11h-13.17v-20.88h13.17Z"/>
        <path class="cls-2" d="M-352.15-474.19h-3c-.34,0-.61-.08-.83-.25-.22-.17-.37-.38-.47-.63l-1.56-4.26h-8.65l-1.56,4.26c-.08.22-.23.42-.46.61-.23.18-.5.27-.83.27h-3.02l8.2-20.88h3.97l8.2,20.88ZM-365.67-482.07h6.66l-2.54-6.95c-.12-.31-.24-.67-.38-1.09-.14-.42-.28-.87-.41-1.36-.14.49-.27.95-.4,1.37-.13.42-.26.79-.38,1.11l-2.54,6.92Z"/>
        <path class="cls-2" d="M-343.95-477.39h8.36v3.21h-12.25v-20.88h3.89v17.68Z"/>
        <path class="cls-2" d="M-318.56-495.07v3.19h-6.28v17.69h-3.88v-17.69h-6.31v-3.19h16.48Z"/>
        <path class="cls-2" d="M-296.3-474.19h-3.91v-9.13h-9.79v9.13h-3.91v-20.88h3.91v8.98h9.79v-8.98h3.91v20.88Z"/>
      </g>
      <g>
        <g class="cls-1">
          <path class="cls-2" d="M157.44,46.73c-.06.13-.14.21-.22.26s-.18.08-.29.08-.24-.04-.38-.13c-.14-.09-.31-.19-.5-.29-.19-.11-.42-.21-.68-.29-.26-.09-.57-.13-.92-.13-.32,0-.6.04-.83.12s-.44.18-.6.32c-.16.14-.28.3-.36.49s-.12.4-.12.63c0,.29.08.53.24.73.16.19.38.36.64.5.27.14.57.26.91.37.34.11.69.22,1.05.35.36.12.7.26,1.05.43.34.16.65.37.91.61.27.25.48.55.64.91.16.36.24.79.24,1.31,0,.56-.1,1.08-.29,1.57-.19.49-.47.91-.84,1.27-.37.36-.82.65-1.35.85-.53.21-1.14.31-1.82.31-.39,0-.78-.04-1.16-.12-.38-.08-.75-.19-1.1-.33-.35-.14-.68-.31-.98-.51-.3-.2-.58-.42-.82-.67l.67-1.1c.06-.08.14-.15.23-.2.09-.05.19-.08.29-.08.14,0,.3.06.46.18.16.12.36.25.58.39.22.14.49.27.79.39.3.12.67.18,1.1.18.65,0,1.16-.15,1.52-.47.36-.31.54-.76.54-1.34,0-.32-.08-.59-.24-.79s-.38-.38-.64-.52-.57-.26-.91-.35c-.34-.1-.69-.2-1.04-.32-.35-.11-.7-.25-1.04-.41-.34-.16-.65-.37-.91-.62-.27-.26-.48-.58-.64-.96-.16-.38-.24-.86-.24-1.42,0-.45.09-.89.27-1.32.18-.43.44-.81.79-1.14s.77-.6,1.27-.79c.5-.2,1.07-.3,1.72-.3.73,0,1.4.11,2.02.34s1.14.55,1.57.96l-.56,1.09Z"/>
          <path class="cls-2" d="M169.76,53.92c.13,0,.23.05.32.14l.91.98c-.5.62-1.12,1.1-1.85,1.43-.73.33-1.61.5-2.63.5-.92,0-1.74-.16-2.47-.47-.73-.31-1.36-.75-1.87-1.31-.52-.56-.92-1.22-1.19-2-.28-.77-.41-1.62-.41-2.54s.15-1.78.46-2.55c.31-.77.74-1.44,1.3-1.99.56-.56,1.23-.99,2-1.3.78-.31,1.64-.47,2.58-.47s1.72.15,2.4.44c.69.29,1.27.68,1.76,1.17l-.77,1.07c-.05.07-.1.13-.18.18s-.17.08-.29.08c-.13,0-.26-.05-.4-.15s-.31-.21-.52-.33c-.21-.12-.48-.23-.8-.33s-.73-.15-1.23-.15c-.58,0-1.11.1-1.6.3-.49.2-.91.49-1.26.87s-.62.83-.82,1.37c-.2.54-.29,1.14-.29,1.82s.1,1.31.29,1.85c.2.54.46,1,.8,1.37.34.37.73.65,1.19.85.46.2.94.29,1.47.29.31,0,.6-.02.85-.05.25-.03.49-.09.7-.16s.42-.17.61-.29.38-.26.57-.43c.06-.05.12-.09.18-.12.06-.03.13-.05.2-.05Z"/>
          <path class="cls-2" d="M185.85,50.66c0,.91-.15,1.74-.45,2.52-.3.77-.73,1.44-1.27,2-.55.56-1.2,1-1.97,1.32-.77.32-1.62.47-2.55.47s-1.79-.16-2.56-.47c-.77-.32-1.43-.76-1.98-1.32-.55-.56-.98-1.23-1.28-2-.3-.77-.45-1.61-.45-2.52s.15-1.74.45-2.52c.3-.77.73-1.44,1.28-2,.55-.56,1.21-1,1.98-1.32.77-.32,1.62-.47,2.56-.47s1.79.16,2.55.48c.77.32,1.43.76,1.97,1.32.55.56.97,1.23,1.27,2,.3.77.45,1.61.45,2.52ZM183.49,50.66c0-.68-.09-1.29-.27-1.82-.18-.54-.44-.99-.77-1.37-.34-.38-.74-.66-1.23-.86-.48-.2-1.02-.3-1.63-.3s-1.15.1-1.63.3c-.48.2-.9.49-1.23.86-.34.38-.6.83-.78,1.37-.18.54-.27,1.15-.27,1.82s.09,1.29.27,1.82c.18.54.44.99.78,1.37.34.37.75.66,1.23.86.48.2,1.03.3,1.63.3s1.15-.1,1.63-.3c.48-.2.89-.49,1.23-.86.34-.37.59-.83.77-1.37.18-.54.27-1.15.27-1.82Z"/>
          <path class="cls-2" d="M200.79,50.66c0,.91-.15,1.74-.45,2.52-.3.77-.73,1.44-1.27,2-.55.56-1.2,1-1.97,1.32s-1.62.47-2.55.47-1.79-.16-2.56-.47c-.77-.32-1.43-.76-1.98-1.32-.55-.56-.98-1.23-1.28-2-.3-.77-.45-1.61-.45-2.52s.15-1.74.45-2.52c.3-.77.73-1.44,1.28-2,.55-.56,1.21-1,1.98-1.32.77-.32,1.62-.47,2.56-.47s1.79.16,2.55.48,1.43.76,1.97,1.32c.55.56.97,1.23,1.27,2,.3.77.45,1.61.45,2.52ZM198.43,50.66c0-.68-.09-1.29-.27-1.82-.18-.54-.44-.99-.77-1.37-.34-.38-.74-.66-1.23-.86-.48-.2-1.02-.3-1.63-.3s-1.15.1-1.63.3c-.48.2-.9.49-1.23.86s-.6.83-.78,1.37c-.18.54-.27,1.15-.27,1.82s.09,1.29.27,1.82c.18.54.44.99.78,1.37s.75.66,1.23.86c.48.2,1.03.3,1.63.3s1.15-.1,1.63-.3c.48-.2.89-.49,1.23-.86.34-.37.59-.83.77-1.37.18-.54.27-1.15.27-1.82Z"/>
          <path class="cls-2" d="M206.26,52.49v4.35h-2.3v-12.35h4.02c.83,0,1.54.1,2.14.29s1.1.46,1.49.81c.39.35.68.76.87,1.25s.28,1.01.28,1.59-.1,1.15-.3,1.64c-.2.5-.5.93-.9,1.29s-.9.64-1.49.84c-.6.2-1.3.3-2.1.3h-1.73ZM206.26,50.69h1.73c.42,0,.79-.05,1.1-.16s.57-.26.78-.45c.2-.2.36-.44.46-.72.1-.28.15-.6.15-.94s-.05-.63-.15-.9-.26-.5-.46-.68-.46-.33-.78-.43-.68-.15-1.1-.15h-1.73v4.43Z"/>
        </g>
        <g>
          <path class="cls-7" d="M87.5,56.61h-2.33v-5.44h-5.83v5.44h-2.33v-12.44h2.33v5.35h5.83v-5.35h2.33v12.44Z"/>
          <path class="cls-7" d="M99.15,44.17v1.84h-5.52v3.45h4.35v1.78h-4.35v3.52h5.52v1.85h-7.85v-12.44h7.85Z"/>
          <path class="cls-7" d="M113.38,56.61h-1.79c-.2,0-.37-.05-.49-.15-.13-.1-.22-.22-.28-.37l-.93-2.54h-5.15l-.93,2.54c-.05.13-.14.25-.27.36-.13.11-.3.16-.49.16h-1.8l4.89-12.44h2.37l4.89,12.44ZM105.33,51.91h3.97l-1.51-4.14c-.07-.18-.14-.4-.23-.65-.08-.25-.17-.52-.25-.81-.08.29-.16.57-.24.82-.08.25-.15.47-.23.66l-1.51,4.12Z"/>
          <path class="cls-7" d="M118.27,54.7h4.98v1.91h-7.3v-12.44h2.32v10.53Z"/>
          <path class="cls-7" d="M133.4,44.17v1.9h-3.74v10.54h-2.31v-10.54h-3.76v-1.9h9.82Z"/>
          <path class="cls-7" d="M146.65,56.61h-2.33v-5.44h-5.83v5.44h-2.33v-12.44h2.33v5.35h5.83v-5.35h2.33v12.44Z"/>
        </g>
      </g>
    </g>
  </g>
</svg>