<?xml version="1.0" encoding="UTF-8"?><svg id="Layer_1" xmlns="http://www.w3.org/2000/svg" viewBox="0 0 307.76 57"><defs><style>.cls-1{fill:#00ff73;}.cls-2{fill:#606060;}.cls-3{opacity:.85;}.cls-4{fill:#7a7a7a;}</style></defs><path class="cls-2" d="M25.01,10.71c-.57-4.39-4.77-4.86-8.45-4.86s-6.23,1.7-6.23,3.96c0,1.79,1.51,2.79,3.87,3.16l11.47,1.84c6.13.99,10.81,3.3,10.81,9.44s-4.25,11.32-17.51,11.32c-8.21.01-18.88-1.03-18.97-11.55h10.29c.09,4.63,4.72,5.43,8.68,5.43,4.29,0,7.22-1.27,7.22-4.2,0-2.6-2.08-3.3-5.71-3.87l-8.35-1.27c-5.85-.9-11.51-2.64-11.51-9.53C.61,3.07,6.75,0,17.32,0c6.94,0,17.22,1.18,17.84,10.71h-10.15Z"/><path class="cls-2" d="M63.32,9.34h8.02v34.68h-8.31v-12.22h-.09c-1.6,2.26-5.05,3.78-9.72,3.78-7.98,0-14.11-5.38-14.11-13.59,0-8.87,6.47-13.31,14.68-13.31,3.49,0,6.28.71,9.44,4.11h.09v-3.44h0ZM55.53,29.45c4.15,0,7.79-2.5,7.79-7.31s-3.63-7.31-7.79-7.31-7.83,2.5-7.83,7.31,3.63,7.31,7.83,7.31Z"/><path class="cls-2" d="M98.28,31.24h-.09c-1.51,2.12-5.47,4.34-10.33,4.34-4.29,0-10.85-1.65-10.85-9.11V9.34h8.31v14.63c0,3.49,1.84,5.19,5.66,5.19,4.48,0,7.03-2.5,7.03-7.17v-12.64h8.31v25.29h-8.02v-3.4h-.02Z"/><path class="cls-2" d="M112.05,17.08c.99-7.79,8.16-8.68,14.96-8.68,11.89,0,14.44,3.87,14.44,8.59v12.55c0,2.22.38,3.82.94,5.1h-8.31c-.28-.9-.52-1.79-.57-2.69-2.83,2.83-8.12,3.63-11.84,3.63-6.61,0-11.23-2.31-11.23-8.21s5.43-7.46,10.48-7.79l8.82-.62c2.55-.19,3.4-.61,3.4-2.64s-1.7-3.02-6.51-3.02c-3.54,0-5.38.28-6.56,3.78h-8.02,0ZM133.43,22.32c-1.56.76-3.26.94-4.91,1.09l-4.81.42c-2.93.24-4.39,1.04-4.39,3.3s2.12,3.54,5.24,3.54c4.2,0,8.87-2.03,8.87-6.28v-2.08h0Z"/><path class="cls-2" d="M169.94,31.48h-.09c-2.69,3.26-6.23,4.11-10,4.11-7.88,0-14.11-4.48-14.11-13.31,0-8.21,6.13-13.59,14.11-13.59,4.67,0,8.12,1.51,9.72,3.78h.09V.38h8.3v34.26h-8.02v-3.16ZM162.16,29.45c4.15,0,7.78-2.5,7.78-7.31s-3.63-7.31-7.78-7.31-7.83,2.5-7.83,7.31,3.63,7.31,7.83,7.31Z"/><path class="cls-4" d="M206.79,24.82h-16.52l-4.29,9.82h-5.38L195.85.94h5.71l15.24,33.69h-5.71l-4.29-9.82h-.01ZM198.49,5.57l-6.32,14.91h12.79l-6.46-14.91h0Z"/><path class="cls-4" d="M219.48,9.91h4.72v3.45h.09c1.84-2.6,5.76-4.01,9.39-4.01,7.46,0,13.45,4.77,13.45,13.07s-5.99,13.07-13.45,13.07c-3.68,0-7.5-1.32-9.39-4.01h-.09v12.69h-4.72V9.91ZM233.07,13.31c-6.42,0-9.15,4.44-9.15,9.11,0,5.66,3.63,9.11,9.15,9.11s9.06-3.44,9.06-9.11c0-4.67-2.69-9.11-9.06-9.11Z"/><path class="cls-4" d="M251.8,9.91h4.72v3.45h.09c1.84-2.6,5.76-4.01,9.39-4.01,7.46,0,13.45,4.77,13.45,13.07s-5.99,13.07-13.45,13.07c-3.68,0-7.5-1.32-9.39-4.01h-.09v12.69h-4.72V9.91h0ZM265.39,13.31c-6.42,0-9.15,4.44-9.15,9.11,0,5.66,3.63,9.11,9.15,9.11s9.06-3.44,9.06-9.11c0-4.67-2.69-9.11-9.06-9.11Z"/><path class="cls-4" d="M287.42,26.85c0,2.22,1.79,4.96,7.79,4.96s7.55-2.12,7.55-3.87-.9-2.78-4.67-3.3l-7.79-1.04c-3.54-.47-6.7-2.74-6.7-6.56,0-5,4.34-7.98,11.28-7.98,8.12,0,11.66,3.49,12.08,8.3h-4.72c-.14-2.5-2.5-4.63-7.41-4.63-3.02,0-6.51.85-6.51,3.78,0,1.65.75,2.6,4.11,3.07l6.7.9c6.23.85,8.63,3.07,8.63,6.56,0,5.76-4.86,8.45-12.41,8.45-5.66,0-12.13-1.46-12.65-8.64h4.72Z"/><g class="cls-3"><path class="cls-1" d="M157.44,46.73c-.06.13-.14.21-.22.26s-.18.08-.29.08-.24-.04-.38-.13-.31-.19-.5-.29c-.19-.11-.42-.21-.68-.29-.26-.09-.57-.13-.92-.13-.32,0-.6.04-.83.12s-.44.18-.6.32-.28.3-.36.49-.12.4-.12.63c0,.29.08.53.24.73.16.19.38.36.64.5.27.14.57.26.91.37s.69.22,1.05.35c.36.12.7.26,1.05.43.34.16.65.37.91.61.27.25.48.55.64.91s.24.79.24,1.31c0,.56-.1,1.08-.29,1.57-.19.49-.47.91-.84,1.27s-.82.65-1.35.85c-.53.21-1.14.31-1.82.31-.39,0-.78-.04-1.16-.12-.38-.08-.75-.19-1.1-.33-.35-.14-.68-.31-.98-.51-.3-.2-.58-.42-.82-.67l.67-1.1c.06-.08.14-.15.23-.2s.19-.08.29-.08c.14,0,.3.06.46.18s.36.25.58.39.49.27.79.39c.3.12.67.18,1.1.18.65,0,1.16-.15,1.52-.47.36-.31.54-.76.54-1.34,0-.32-.08-.59-.24-.79s-.38-.38-.64-.52-.57-.26-.91-.35c-.34-.1-.69-.2-1.04-.32-.35-.11-.7-.25-1.04-.41s-.65-.37-.91-.62c-.27-.26-.48-.58-.64-.96-.16-.38-.24-.86-.24-1.42,0-.45.09-.89.27-1.32.18-.43.44-.81.79-1.14s.77-.6,1.27-.79c.5-.2,1.07-.3,1.72-.3.73,0,1.4.11,2.02.34s1.14.55,1.57.96l-.56,1.09-.02-.04Z"/><path class="cls-1" d="M169.76,53.92c.13,0,.23.05.32.14l.91.98c-.5.62-1.12,1.1-1.85,1.43-.73.33-1.61.5-2.63.5-.92,0-1.74-.16-2.47-.47s-1.36-.75-1.87-1.31c-.52-.56-.92-1.22-1.19-2-.28-.77-.41-1.62-.41-2.54s.15-1.78.46-2.55c.31-.77.74-1.44,1.3-1.99.56-.56,1.23-.99,2-1.3.78-.31,1.64-.47,2.58-.47s1.72.15,2.4.44c.69.29,1.27.68,1.76,1.17l-.77,1.07c-.05.07-.1.13-.18.18s-.17.08-.29.08c-.13,0-.26-.05-.4-.15s-.31-.21-.52-.33c-.21-.12-.48-.23-.8-.33s-.73-.15-1.23-.15c-.58,0-1.11.1-1.6.3s-.91.49-1.26.87-.62.83-.82,1.37c-.2.54-.29,1.14-.29,1.82s.1,1.31.29,1.85c.2.54.46,1,.8,1.37s.73.65,1.19.85c.46.2.94.29,1.47.29.31,0,.6-.02.85-.05s.49-.09.7-.16.42-.17.61-.29.38-.26.57-.43c.06-.05.12-.09.18-.12s.13-.05.2-.05v-.02Z"/><path class="cls-1" d="M185.85,50.66c0,.91-.15,1.74-.45,2.52-.3.77-.73,1.44-1.27,2-.55.56-1.2,1-1.97,1.32s-1.62.47-2.55.47-1.79-.16-2.56-.47c-.77-.32-1.43-.76-1.98-1.32s-.98-1.23-1.28-2-.45-1.61-.45-2.52.15-1.74.45-2.52c.3-.77.73-1.44,1.28-2s1.21-1,1.98-1.32c.77-.32,1.62-.47,2.56-.47s1.79.16,2.55.48c.77.32,1.43.76,1.97,1.32.55.56.97,1.23,1.27,2s.45,1.61.45,2.52h0ZM183.49,50.66c0-.68-.09-1.29-.27-1.82-.18-.54-.44-.99-.77-1.37-.34-.38-.74-.66-1.23-.86-.48-.2-1.02-.3-1.63-.3s-1.15.1-1.63.3c-.48.2-.9.49-1.23.86-.34.38-.6.83-.78,1.37-.18.54-.27,1.15-.27,1.82s.09,1.29.27,1.82c.18.54.44.99.78,1.37.34.37.75.66,1.23.86s1.03.3,1.63.3,1.15-.1,1.63-.3c.48-.2.89-.49,1.23-.86s.59-.83.77-1.37c.18-.54.27-1.15.27-1.82Z"/><path class="cls-1" d="M200.79,50.66c0,.91-.15,1.74-.45,2.52-.3.77-.73,1.44-1.27,2-.55.56-1.2,1-1.97,1.32s-1.62.47-2.55.47-1.79-.16-2.56-.47c-.77-.32-1.43-.76-1.98-1.32s-.98-1.23-1.28-2-.45-1.61-.45-2.52.15-1.74.45-2.52c.3-.77.73-1.44,1.28-2s1.21-1,1.98-1.32c.77-.32,1.62-.47,2.56-.47s1.79.16,2.55.48,1.43.76,1.97,1.32c.55.56.97,1.23,1.27,2s.45,1.61.45,2.52h0ZM198.43,50.66c0-.68-.09-1.29-.27-1.82-.18-.54-.44-.99-.77-1.37-.34-.38-.74-.66-1.23-.86-.48-.2-1.02-.3-1.63-.3s-1.15.1-1.63.3c-.48.2-.9.49-1.23.86s-.6.83-.78,1.37c-.18.54-.27,1.15-.27,1.82s.09,1.29.27,1.82c.18.54.44.99.78,1.37s.75.66,1.23.86,1.03.3,1.63.3,1.15-.1,1.63-.3c.48-.2.89-.49,1.23-.86s.59-.83.77-1.37c.18-.54.27-1.15.27-1.82Z"/><path class="cls-1" d="M206.26,52.49v4.35h-2.3v-12.35h4.02c.83,0,1.54.1,2.14.29s1.1.46,1.49.81c.39.35.68.76.87,1.25s.28,1.01.28,1.59-.1,1.15-.3,1.64c-.2.5-.5.93-.9,1.29s-.9.64-1.49.84c-.6.2-1.3.3-2.1.3h-1.73.02ZM206.26,50.69h1.73c.42,0,.79-.05,1.1-.16s.57-.26.78-.45c.2-.2.36-.44.46-.72.1-.28.15-.6.15-.94s-.05-.63-.15-.9-.26-.5-.46-.68-.46-.33-.78-.43-.68-.15-1.1-.15h-1.73v4.43Z"/></g><path class="cls-2" d="M87.5,56.61h-2.33v-5.44h-5.83v5.44h-2.33v-12.44h2.33v5.35h5.83v-5.35h2.33v12.44Z"/><path class="cls-2" d="M99.15,44.17v1.84h-5.52v3.45h4.35v1.78h-4.35v3.52h5.52v1.85h-7.85v-12.44h7.85Z"/><path class="cls-2" d="M113.38,56.61h-1.79c-.2,0-.37-.05-.49-.15-.13-.1-.22-.22-.28-.37l-.93-2.54h-5.15l-.93,2.54c-.05.13-.14.25-.27.36s-.3.16-.49.16h-1.8l4.89-12.44h2.37l4.89,12.44h-.02ZM105.33,51.91h3.97l-1.51-4.14c-.07-.18-.14-.4-.23-.65-.08-.25-.17-.52-.25-.81-.08.29-.16.57-.24.82-.08.25-.15.47-.23.66,0,0-1.51,4.12-1.51,4.12Z"/><path class="cls-2" d="M118.27,54.7h4.98v1.91h-7.3v-12.44h2.32v10.53Z"/><path class="cls-2" d="M133.4,44.17v1.9h-3.74v10.54h-2.31v-10.54h-3.76v-1.9h9.82,0Z"/><path class="cls-2" d="M146.65,56.61h-2.33v-5.44h-5.83v5.44h-2.33v-12.44h2.33v5.35h5.83v-5.35h2.33v12.44Z"/></svg>