<?xml version="1.0" encoding="UTF-8"?><svg id="Layer_1" xmlns="http://www.w3.org/2000/svg" viewBox="0 0 396.6 77.8"><defs><style>.cls-1{fill:#00d25f;}.cls-1,.cls-2,.cls-3,.cls-4{stroke-width:0px;}.cls-1,.cls-3,.cls-4{opacity:.85;}.cls-2{fill:#465a63;}.cls-3{fill:#00ff73;}.cls-4{fill:#00a74b;}</style></defs><path class="cls-2" d="M113.86,32.76c-.57-4.39-4.77-4.86-8.45-4.86s-6.23,1.7-6.23,3.96c0,1.79,1.51,2.79,3.87,3.16l11.47,1.84c6.13.99,10.81,3.3,10.81,9.44s-4.25,11.32-17.51,11.32c-8.21,0-18.88-1.04-18.97-11.56h10.29c.09,4.63,4.72,5.43,8.68,5.43,4.29,0,7.22-1.27,7.22-4.2,0-2.6-2.08-3.3-5.71-3.87l-8.35-1.27c-5.85-.9-11.51-2.64-11.51-9.53,0-7.5,6.13-10.57,16.71-10.57,6.94,0,17.22,1.18,17.84,10.71h-10.15Z"/><path class="cls-2" d="M152.16,31.39h8.02v34.68h-8.31v-12.22h-.09c-1.6,2.26-5.05,3.78-9.72,3.78-7.98,0-14.11-5.38-14.11-13.59,0-8.87,6.47-13.31,14.68-13.31,3.49,0,6.28.71,9.44,4.11h.09v-3.44ZM144.38,51.49c4.15,0,7.79-2.5,7.79-7.31s-3.63-7.31-7.79-7.31-7.83,2.5-7.83,7.31,3.63,7.31,7.83,7.31Z"/><path class="cls-2" d="M187.12,53.28h-.09c-1.51,2.12-5.47,4.34-10.33,4.34-4.29,0-10.85-1.65-10.85-9.11v-17.13h8.31v14.63c0,3.49,1.84,5.19,5.66,5.19,4.48,0,7.03-2.5,7.03-7.17v-12.64h8.31v25.29h-8.02v-3.4Z"/><path class="cls-2" d="M200.9,39.13c.99-7.79,8.16-8.68,14.96-8.68,11.89,0,14.44,3.87,14.44,8.59v12.55c0,2.22.38,3.82.94,5.1h-8.31c-.28-.9-.52-1.79-.57-2.69-2.83,2.83-8.12,3.63-11.84,3.63-6.61,0-11.23-2.31-11.23-8.21s5.43-7.46,10.48-7.79l8.82-.62c2.55-.19,3.4-.61,3.4-2.64s-1.7-3.02-6.51-3.02c-3.54,0-5.38.28-6.56,3.78h-8.02ZM222.27,44.37c-1.56.76-3.26.94-4.91,1.09l-4.81.42c-2.93.24-4.39,1.04-4.39,3.3s2.12,3.54,5.24,3.54c4.2,0,8.87-2.03,8.87-6.28v-2.08Z"/><path class="cls-2" d="M258.79,53.52h-.09c-2.69,3.26-6.23,4.11-10,4.11-7.88,0-14.11-4.48-14.11-13.31,0-8.21,6.13-13.59,14.11-13.59,4.67,0,8.12,1.51,9.72,3.78h.09v-12.08h8.3v34.26h-8.02v-3.16ZM251,51.49c4.15,0,7.78-2.5,7.78-7.31s-3.63-7.31-7.78-7.31-7.83,2.5-7.83,7.31,3.63,7.31,7.83,7.31Z"/><path class="cls-2" d="M295.64,46.87h-16.52l-4.29,9.82h-5.38l15.24-33.69h5.71l15.24,33.69h-5.71l-4.29-9.82ZM287.33,27.61l-6.32,14.91h12.79l-6.46-14.91Z"/><path class="cls-2" d="M308.32,31.95h4.72v3.45h.09c1.84-2.6,5.76-4.01,9.39-4.01,7.46,0,13.45,4.77,13.45,13.07s-5.99,13.07-13.45,13.07c-3.68,0-7.5-1.32-9.39-4.01h-.09v12.69h-4.72V31.95ZM321.91,35.35c-6.42,0-9.15,4.44-9.15,9.11,0,5.66,3.63,9.11,9.15,9.11s9.06-3.44,9.06-9.11c0-4.67-2.69-9.11-9.06-9.11Z"/><path class="cls-2" d="M340.64,31.95h4.72v3.45h.09c1.84-2.6,5.76-4.01,9.39-4.01,7.46,0,13.45,4.77,13.45,13.07s-5.99,13.07-13.45,13.07c-3.68,0-7.5-1.32-9.39-4.01h-.09v12.69h-4.72V31.95ZM354.23,35.35c-6.42,0-9.15,4.44-9.15,9.11,0,5.66,3.63,9.11,9.15,9.11s9.06-3.44,9.06-9.11c0-4.67-2.69-9.11-9.06-9.11Z"/><path class="cls-2" d="M376.26,48.9c0,2.22,1.79,4.96,7.79,4.96s7.55-2.12,7.55-3.87-.9-2.78-4.67-3.3l-7.79-1.04c-3.54-.47-6.7-2.74-6.7-6.56,0-5,4.34-7.98,11.28-7.98,8.12,0,11.66,3.49,12.08,8.3h-4.72c-.14-2.5-2.5-4.63-7.41-4.63-3.02,0-6.51.85-6.51,3.78,0,1.65.75,2.6,4.11,3.07l6.7.9c6.23.85,8.63,3.07,8.63,6.56,0,5.76-4.86,8.45-12.41,8.45-5.66,0-12.13-1.46-12.65-8.64h4.72Z"/><polygon class="cls-4" points="79.76 38.91 79.76 58.35 79.75 58.35 59.81 68.08 39.87 77.8 19.94 68.08 0 58.35 0 58.34 19.93 48.63 39.87 58.35 59.81 48.63 59.81 29.18 79.75 38.91 79.76 38.91"/><polygon class="cls-1" points="79.75 38.91 59.82 48.63 59.81 48.63 39.87 58.35 19.93 48.63 0 38.91 0 19.45 19.94 29.18 39.87 38.9 59.81 29.18 79.75 38.91"/><polygon class="cls-3" points="79.75 19.45 59.81 29.18 39.87 19.45 19.94 29.18 0 38.9 0 19.45 19.93 9.73 39.87 0 59.81 9.72 59.81 9.73 59.82 9.73 79.75 19.45"/></svg>