<?xml version="1.0" encoding="UTF-8"?>
<svg xmlns="http://www.w3.org/2000/svg" version="1.1" viewBox="0 0 307.76 61.63">
  <defs>
    <style>
      .cls-1 {
        opacity: .85;
      }

      .cls-2 {
        fill: #00ff73;
      }

      .cls-3 {
        fill: #0092a5;
      }

      .cls-4 {
        fill: #fff;
      }

      .cls-5 {
        fill: #e5e5e5;
      }

      .cls-6 {
        fill: #00edff;
      }
    </style>
  </defs>
  <!-- Generator: Adobe Illustrator 28.6.0, SVG Export Plug-In . SVG Version: 1.2.0 Build 709)  -->
  <g>
    <g id="Layer_1">
      <g>
        <path class="cls-4" d="M25.01,10.71c-.57-4.39-4.77-4.86-8.45-4.86s-6.23,1.7-6.23,3.96c0,1.79,1.51,2.79,3.87,3.16l11.47,1.84c6.13.99,10.81,3.3,10.81,9.44s-4.25,11.32-17.51,11.32C10.76,35.58.09,34.54,0,24.02h10.29c.09,4.63,4.72,5.43,8.68,5.43,4.29,0,7.22-1.27,7.22-4.2,0-2.6-2.08-3.3-5.71-3.87l-8.35-1.27c-5.85-.9-11.51-2.64-11.51-9.53C.61,3.07,6.75,0,17.32,0c6.94,0,17.22,1.18,17.84,10.71h-10.15Z"/>
        <path class="cls-4" d="M63.32,9.34h8.02v34.68h-8.31v-12.22h-.09c-1.6,2.26-5.05,3.78-9.72,3.78-7.98,0-14.11-5.38-14.11-13.59,0-8.87,6.47-13.31,14.68-13.31,3.49,0,6.28.71,9.44,4.11h.09v-3.44ZM55.53,29.45c4.15,0,7.79-2.5,7.79-7.31s-3.63-7.31-7.79-7.31-7.83,2.5-7.83,7.31,3.63,7.31,7.83,7.31Z"/>
        <path class="cls-4" d="M98.28,31.24h-.09c-1.51,2.12-5.47,4.34-10.33,4.34-4.29,0-10.85-1.65-10.85-9.11V9.34h8.31v14.63c0,3.49,1.84,5.19,5.66,5.19,4.48,0,7.03-2.5,7.03-7.17v-12.64h8.31v25.29h-8.02v-3.4Z"/>
        <path class="cls-4" d="M112.05,17.08c.99-7.79,8.16-8.68,14.96-8.68,11.89,0,14.44,3.87,14.44,8.59v12.55c0,2.22.38,3.82.94,5.1h-8.31c-.28-.9-.52-1.79-.57-2.69-2.83,2.83-8.12,3.63-11.84,3.63-6.61,0-11.23-2.31-11.23-8.21s5.43-7.46,10.48-7.79l8.82-.62c2.55-.19,3.4-.61,3.4-2.64s-1.7-3.02-6.51-3.02c-3.54,0-5.38.28-6.56,3.78h-8.02ZM133.43,22.32c-1.56.76-3.26.94-4.91,1.09l-4.81.42c-2.93.24-4.39,1.04-4.39,3.3s2.12,3.54,5.24,3.54c4.2,0,8.87-2.03,8.87-6.28v-2.08Z"/>
        <path class="cls-4" d="M169.94,31.48h-.09c-2.69,3.26-6.23,4.11-10,4.11-7.88,0-14.11-4.48-14.11-13.31,0-8.21,6.13-13.59,14.11-13.59,4.67,0,8.12,1.51,9.72,3.78h.09V.38h8.3v34.26h-8.02v-3.16ZM162.16,29.45c4.15,0,7.78-2.5,7.78-7.31s-3.63-7.31-7.78-7.31-7.83,2.5-7.83,7.31,3.63,7.31,7.83,7.31Z"/>
        <g>
          <path class="cls-5" d="M206.79,24.82h-16.52l-4.29,9.82h-5.38L195.85.94h5.71l15.24,33.69h-5.71l-4.29-9.82ZM198.49,5.57l-6.32,14.91h12.79l-6.46-14.91Z"/>
          <path class="cls-5" d="M219.48,9.91h4.72v3.45h.09c1.84-2.6,5.76-4.01,9.39-4.01,7.46,0,13.45,4.77,13.45,13.07s-5.99,13.07-13.45,13.07c-3.68,0-7.5-1.32-9.39-4.01h-.09v12.69h-4.72V9.91ZM233.07,13.31c-6.42,0-9.15,4.44-9.15,9.11,0,5.66,3.63,9.11,9.15,9.11s9.06-3.44,9.06-9.11c0-4.67-2.69-9.11-9.06-9.11Z"/>
          <path class="cls-5" d="M251.8,9.91h4.72v3.45h.09c1.84-2.6,5.76-4.01,9.39-4.01,7.46,0,13.45,4.77,13.45,13.07s-5.99,13.07-13.45,13.07c-3.68,0-7.5-1.32-9.39-4.01h-.09v12.69h-4.72V9.91ZM265.39,13.31c-6.42,0-9.15,4.44-9.15,9.11,0,5.66,3.63,9.11,9.15,9.11s9.06-3.44,9.06-9.11c0-4.67-2.69-9.11-9.06-9.11Z"/>
          <path class="cls-5" d="M287.42,26.85c0,2.22,1.79,4.96,7.79,4.96s7.55-2.12,7.55-3.87-.9-2.78-4.67-3.3l-7.79-1.04c-3.54-.47-6.7-2.74-6.7-6.56,0-5,4.34-7.98,11.28-7.98,8.12,0,11.66,3.49,12.08,8.3h-4.72c-.14-2.5-2.5-4.63-7.41-4.63-3.02,0-6.51.85-6.51,3.78,0,1.65.75,2.6,4.11,3.07l6.7.9c6.23.85,8.63,3.07,8.63,6.56,0,5.76-4.86,8.45-12.41,8.45-5.66,0-12.13-1.46-12.65-8.64h4.72Z"/>
        </g>
      </g>
      <g class="cls-1">
        <path class="cls-6" d="M106.28-158.54v-20.46h7.06c1.34,0,2.48.13,3.43.38.95.25,1.73.62,2.34,1.09.61.47,1.05,1.04,1.34,1.71s.42,1.43.42,2.26c0,.48-.07.94-.21,1.38-.14.44-.36.85-.66,1.23s-.67.73-1.13,1.04c-.46.31-1,.58-1.64.79,2.81.63,4.22,2.15,4.22,4.56,0,.87-.16,1.67-.5,2.4-.33.74-.81,1.37-1.44,1.9-.63.53-1.41.95-2.34,1.25-.93.3-1.98.45-3.17.45h-7.73ZM110.09-170.15h3.04c1.29,0,2.27-.23,2.94-.71.67-.47,1-1.22,1-2.25s-.3-1.83-.91-2.28c-.6-.45-1.55-.68-2.83-.68h-3.25v5.92ZM110.09-167.52v6h3.86c.71,0,1.3-.09,1.78-.26s.86-.4,1.15-.68.5-.61.62-.99.19-.78.19-1.2c0-.44-.07-.84-.21-1.2-.14-.35-.36-.66-.67-.91-.3-.25-.69-.44-1.16-.57-.47-.13-1.04-.2-1.71-.2h-3.85Z"/>
        <path class="cls-6" d="M131.36-161.69h8.19v3.14h-12v-20.46h3.81v17.32Z"/>
        <path class="cls-6" d="M163-158.54h-2.94c-.33,0-.6-.08-.81-.25-.21-.16-.37-.37-.46-.61l-1.53-4.17h-8.48l-1.53,4.17c-.08.22-.23.42-.45.59-.22.18-.49.27-.81.27h-2.96l8.04-20.46h3.89l8.04,20.46ZM149.76-166.27h6.53l-2.49-6.81c-.11-.3-.24-.66-.38-1.07-.14-.41-.27-.85-.4-1.34-.13.48-.26.93-.39,1.34-.13.42-.25.78-.37,1.09l-2.49,6.78Z"/>
        <path class="cls-6" d="M182.56-179.01v1.4c0,.43-.12.83-.37,1.19l-10.5,14.83h10.61v3.04h-15.55v-1.5c0-.19.03-.37.1-.55s.15-.34.26-.49l10.53-14.9h-10.22v-3.03h15.14Z"/>
        <path class="cls-6" d="M201.14-179.01v3.03h-9.07v5.67h7.15v2.93h-7.15v5.79h9.07v3.04h-12.91v-20.46h12.91Z"/>
      </g>
      <path class="cls-3" d="M-457.02-433.33"/>
      <g class="cls-1">
        <path class="cls-2" d="M109.99,43.14c-.11.21-.23.36-.37.44s-.3.13-.49.13-.41-.07-.65-.22c-.24-.15-.52-.31-.85-.49-.33-.18-.71-.35-1.14-.5-.44-.15-.95-.22-1.54-.22-.54,0-1,.06-1.4.19s-.73.31-1,.54c-.27.23-.48.5-.61.83s-.2.67-.2,1.05c0,.49.14.89.41,1.22.27.32.63.6,1.08.83.45.23.96.43,1.53.62.57.18,1.16.38,1.76.58.6.21,1.18.44,1.76.72.57.27,1.08.62,1.53,1.03.45.42.81.92,1.08,1.53.27.6.41,1.33.41,2.19,0,.94-.16,1.81-.48,2.63-.32.82-.79,1.53-1.41,2.14-.62.61-1.37,1.08-2.26,1.43-.89.35-1.91.52-3.05.52-.66,0-1.31-.06-1.95-.19-.64-.13-1.25-.31-1.84-.55-.59-.24-1.14-.53-1.65-.86-.51-.33-.97-.71-1.37-1.12l1.12-1.85c.1-.13.23-.25.38-.34.15-.09.31-.14.49-.14.24,0,.5.1.77.29.28.2.6.41.98.65.38.24.82.46,1.33.65.51.2,1.13.29,1.84.29,1.1,0,1.95-.26,2.55-.78.6-.52.9-1.27.9-2.24,0-.54-.14-.99-.41-1.33s-.63-.63-1.08-.87-.96-.43-1.53-.59c-.57-.16-1.16-.34-1.75-.53-.59-.19-1.18-.42-1.75-.69-.57-.27-1.08-.62-1.53-1.05-.45-.43-.81-.97-1.08-1.61-.27-.65-.41-1.44-.41-2.39,0-.75.15-1.49.45-2.21.3-.72.74-1.35,1.32-1.91s1.29-1,2.13-1.33c.84-.33,1.8-.5,2.88-.5,1.22,0,2.35.19,3.38.57s1.91.92,2.64,1.61l-.95,1.82Z"/>
        <path class="cls-2" d="M130.66,55.21c.21,0,.39.08.54.24l1.52,1.65c-.84,1.04-1.88,1.84-3.1,2.39-1.23.55-2.7.83-4.42.83-1.54,0-2.92-.26-4.15-.79-1.23-.53-2.28-1.26-3.15-2.19-.87-.94-1.54-2.05-2-3.35-.46-1.3-.7-2.72-.7-4.26s.26-2.98.77-4.28c.52-1.3,1.24-2.41,2.18-3.35.94-.94,2.06-1.67,3.36-2.19,1.3-.52,2.75-.78,4.32-.78s2.88.25,4.04.74c1.15.49,2.14,1.14,2.96,1.96l-1.29,1.79c-.08.11-.17.21-.29.3s-.28.13-.49.13c-.22,0-.44-.09-.67-.26s-.52-.36-.88-.56c-.35-.2-.8-.39-1.34-.56s-1.23-.26-2.06-.26c-.98,0-1.87.17-2.69.51-.82.34-1.52.82-2.11,1.46s-1.05,1.4-1.38,2.3c-.33.9-.5,1.92-.5,3.05s.17,2.2.5,3.11c.33.91.78,1.67,1.34,2.29.56.62,1.23,1.1,1.99,1.43.76.33,1.59.5,2.47.5.53,0,1-.03,1.43-.09.42-.06.82-.15,1.18-.27s.7-.28,1.02-.48.64-.44.95-.72c.1-.09.2-.16.3-.21.1-.05.22-.08.34-.08Z"/>
        <path class="cls-2" d="M157.67,49.73c0,1.52-.25,2.93-.76,4.22-.51,1.3-1.22,2.42-2.14,3.36-.92.95-2.02,1.68-3.31,2.21-1.29.53-2.72.8-4.29.8s-3-.27-4.29-.8c-1.29-.53-2.4-1.27-3.33-2.21-.92-.95-1.64-2.07-2.14-3.36-.51-1.29-.76-2.7-.76-4.22s.25-2.93.76-4.22c.51-1.29,1.22-2.42,2.14-3.36.92-.95,2.03-1.68,3.33-2.22,1.3-.53,2.73-.79,4.29-.79s3,.27,4.29.8c1.29.54,2.39,1.27,3.31,2.21.92.94,1.63,2.06,2.14,3.35.51,1.3.76,2.7.76,4.22ZM153.71,49.73c0-1.14-.15-2.16-.45-3.06-.3-.9-.73-1.67-1.3-2.3-.56-.63-1.25-1.11-2.06-1.45-.81-.33-1.72-.5-2.73-.5s-1.93.17-2.74.5c-.81.33-1.5.82-2.07,1.45-.57.63-1.01,1.4-1.31,2.3-.31.9-.46,1.92-.46,3.06s.15,2.16.46,3.06c.31.9.74,1.67,1.31,2.29.57.63,1.26,1.11,2.07,1.44.81.33,1.73.5,2.74.5s1.92-.17,2.73-.5c.81-.33,1.49-.81,2.06-1.44.56-.63,1-1.39,1.3-2.29.3-.9.45-1.92.45-3.06Z"/>
        <path class="cls-2" d="M182.75,49.73c0,1.52-.25,2.93-.76,4.22-.51,1.3-1.22,2.42-2.14,3.36-.92.95-2.02,1.68-3.31,2.21s-2.72.8-4.29.8-3-.27-4.29-.8c-1.29-.53-2.4-1.27-3.33-2.21-.92-.95-1.64-2.07-2.14-3.36-.51-1.29-.76-2.7-.76-4.22s.25-2.93.76-4.22c.51-1.29,1.22-2.42,2.14-3.36.92-.95,2.03-1.68,3.33-2.22,1.3-.53,2.73-.79,4.29-.79s3,.27,4.29.8,2.39,1.27,3.31,2.21c.92.94,1.63,2.06,2.14,3.35.51,1.3.76,2.7.76,4.22ZM178.79,49.73c0-1.14-.15-2.16-.45-3.06-.3-.9-.73-1.67-1.3-2.3-.56-.63-1.25-1.11-2.06-1.45-.81-.33-1.72-.5-2.73-.5s-1.93.17-2.74.5c-.81.33-1.5.82-2.07,1.45s-1.01,1.4-1.31,2.3c-.31.9-.46,1.92-.46,3.06s.15,2.16.46,3.06c.31.9.74,1.67,1.31,2.29s1.26,1.11,2.07,1.44c.81.33,1.73.5,2.74.5s1.92-.17,2.73-.5c.81-.33,1.49-.81,2.06-1.44.56-.63,1-1.39,1.3-2.29.3-.9.45-1.92.45-3.06Z"/>
        <path class="cls-2" d="M191.92,52.8v7.3h-3.86v-20.73h6.75c1.39,0,2.59.16,3.6.49s1.85.78,2.51,1.36c.66.58,1.15,1.28,1.46,2.09s.47,1.7.47,2.67-.17,1.92-.5,2.76c-.33.84-.84,1.56-1.5,2.16s-1.51,1.07-2.51,1.41c-1,.33-2.18.5-3.53.5h-2.9ZM191.92,49.79h2.9c.71,0,1.32-.09,1.85-.26s.96-.43,1.3-.76c.34-.33.6-.73.77-1.2.17-.47.26-1,.26-1.58s-.09-1.06-.26-1.5-.43-.83-.77-1.15-.78-.56-1.3-.72-1.14-.25-1.85-.25h-2.9v7.44Z"/>
      </g>
    </g>
  </g>
</svg>