<?xml version="1.0" encoding="UTF-8"?><svg id="Layer_1" xmlns="http://www.w3.org/2000/svg" viewBox="0 0 396.6 85.18"><defs><style>.cls-1,.cls-2,.cls-3,.cls-4{opacity:.85;}.cls-2{fill:#00d25f;}.cls-2,.cls-5,.cls-6,.cls-3,.cls-4{stroke-width:0px;}.cls-5{fill:#465a63;}.cls-6,.cls-4{fill:#00a74b;}.cls-3{fill:#00ff73;}</style></defs><path class="cls-5" d="M113.86,32.76c-.57-4.39-4.77-4.86-8.45-4.86s-6.23,1.7-6.23,3.96c0,1.79,1.51,2.79,3.87,3.16l11.47,1.84c6.13.99,10.81,3.3,10.81,9.44s-4.25,11.32-17.51,11.32c-8.21,0-18.88-1.04-18.97-11.56h10.29c.09,4.63,4.72,5.43,8.68,5.43,4.29,0,7.22-1.27,7.22-4.2,0-2.6-2.08-3.3-5.71-3.87l-8.35-1.27c-5.85-.9-11.51-2.64-11.51-9.53,0-7.5,6.13-10.57,16.71-10.57,6.94,0,17.22,1.18,17.84,10.71h-10.15Z"/><path class="cls-5" d="M152.16,31.39h8.02v34.68h-8.31v-12.22h-.09c-1.6,2.26-5.05,3.78-9.72,3.78-7.98,0-14.11-5.38-14.11-13.59,0-8.87,6.47-13.31,14.68-13.31,3.49,0,6.28.71,9.44,4.11h.09v-3.44ZM144.38,51.49c4.15,0,7.79-2.5,7.79-7.31s-3.63-7.31-7.79-7.31-7.83,2.5-7.83,7.31,3.63,7.31,7.83,7.31Z"/><path class="cls-5" d="M187.12,53.28h-.09c-1.51,2.12-5.47,4.34-10.33,4.34-4.29,0-10.85-1.65-10.85-9.11v-17.13h8.31v14.63c0,3.49,1.84,5.19,5.66,5.19,4.48,0,7.03-2.5,7.03-7.17v-12.64h8.31v25.29h-8.02v-3.4Z"/><path class="cls-5" d="M200.9,39.13c.99-7.79,8.16-8.68,14.96-8.68,11.89,0,14.44,3.87,14.44,8.59v12.55c0,2.22.38,3.82.94,5.1h-8.31c-.28-.9-.52-1.79-.57-2.69-2.83,2.83-8.12,3.63-11.84,3.63-6.61,0-11.23-2.31-11.23-8.21s5.43-7.46,10.48-7.79l8.82-.62c2.55-.19,3.4-.61,3.4-2.64s-1.7-3.02-6.51-3.02c-3.54,0-5.38.28-6.56,3.78h-8.02ZM222.27,44.37c-1.56.76-3.26.94-4.91,1.09l-4.81.42c-2.93.24-4.39,1.04-4.39,3.3s2.12,3.54,5.24,3.54c4.2,0,8.87-2.03,8.87-6.28v-2.08Z"/><path class="cls-5" d="M258.79,53.52h-.09c-2.69,3.26-6.23,4.11-10,4.11-7.88,0-14.11-4.48-14.11-13.31,0-8.21,6.13-13.59,14.11-13.59,4.67,0,8.12,1.51,9.72,3.78h.09v-12.08h8.3v34.26h-8.02v-3.16ZM251,51.49c4.15,0,7.78-2.5,7.78-7.31s-3.63-7.31-7.78-7.31-7.83,2.5-7.83,7.31,3.63,7.31,7.83,7.31Z"/><path class="cls-5" d="M295.64,46.87h-16.52l-4.29,9.82h-5.38l15.24-33.69h5.71l15.24,33.69h-5.71l-4.29-9.82ZM287.33,27.61l-6.32,14.91h12.79l-6.46-14.91Z"/><path class="cls-5" d="M308.32,31.95h4.72v3.45h.09c1.84-2.6,5.76-4.01,9.39-4.01,7.46,0,13.45,4.77,13.45,13.07s-5.99,13.07-13.45,13.07c-3.68,0-7.5-1.32-9.39-4.01h-.09v12.69h-4.72V31.95ZM321.91,35.35c-6.42,0-9.15,4.44-9.15,9.11,0,5.66,3.63,9.11,9.15,9.11s9.06-3.44,9.06-9.11c0-4.67-2.69-9.11-9.06-9.11Z"/><path class="cls-5" d="M340.64,31.95h4.72v3.45h.09c1.84-2.6,5.76-4.01,9.39-4.01,7.46,0,13.45,4.77,13.45,13.07s-5.99,13.07-13.45,13.07c-3.68,0-7.5-1.32-9.39-4.01h-.09v12.69h-4.72V31.95ZM354.23,35.35c-6.42,0-9.15,4.44-9.15,9.11,0,5.66,3.63,9.11,9.15,9.11s9.06-3.44,9.06-9.11c0-4.67-2.69-9.11-9.06-9.11Z"/><path class="cls-5" d="M376.26,48.9c0,2.22,1.79,4.96,7.79,4.96s7.55-2.12,7.55-3.87-.9-2.78-4.67-3.3l-7.79-1.04c-3.54-.47-6.7-2.74-6.7-6.56,0-5,4.34-7.98,11.28-7.98,8.12,0,11.66,3.49,12.08,8.3h-4.72c-.14-2.5-2.5-4.63-7.41-4.63-3.02,0-6.51.85-6.51,3.78,0,1.65.75,2.6,4.11,3.07l6.7.9c6.23.85,8.63,3.07,8.63,6.56,0,5.76-4.86,8.45-12.41,8.45-5.66,0-12.13-1.46-12.65-8.64h4.72Z"/><polygon class="cls-4" points="79.76 38.91 79.76 58.35 79.75 58.35 59.81 68.08 39.87 77.8 19.94 68.08 0 58.35 0 58.34 19.93 48.63 39.87 58.35 59.81 48.63 59.81 29.18 79.75 38.91 79.76 38.91"/><polygon class="cls-2" points="79.75 38.91 59.82 48.63 59.81 48.63 39.87 58.35 19.93 48.63 0 38.91 0 19.45 19.94 29.18 39.87 38.9 59.81 29.18 79.75 38.91"/><polygon class="cls-3" points="79.75 19.45 59.81 29.18 39.87 19.45 19.94 29.18 0 38.9 0 19.45 19.93 9.73 39.87 0 59.81 9.72 59.81 9.73 59.82 9.73 79.75 19.45"/><g class="cls-1"><path class="cls-6" d="M194.78,67.99c-.11.21-.23.36-.37.44s-.3.13-.49.13-.41-.07-.65-.22c-.24-.15-.52-.31-.85-.49-.33-.18-.71-.35-1.14-.5-.44-.15-.95-.22-1.54-.22-.54,0-1,.06-1.4.19s-.73.31-1,.54c-.27.23-.48.5-.61.83s-.2.67-.2,1.05c0,.49.14.89.41,1.22.27.32.63.6,1.08.83.45.23.96.43,1.53.62.57.18,1.16.38,1.76.58.6.21,1.18.44,1.76.72.57.27,1.08.62,1.53,1.03.45.42.81.92,1.08,1.53.27.6.41,1.33.41,2.19,0,.94-.16,1.81-.48,2.63-.32.82-.79,1.53-1.41,2.14-.62.61-1.37,1.08-2.26,1.43-.89.35-1.91.52-3.05.52-.66,0-1.31-.06-1.95-.19-.64-.13-1.25-.31-1.84-.55-.59-.24-1.14-.53-1.65-.86-.51-.33-.97-.71-1.37-1.12l1.12-1.85c.1-.13.23-.25.38-.34.15-.09.31-.14.49-.14.24,0,.5.1.77.29.28.2.6.41.98.65.38.24.82.46,1.33.65.51.2,1.13.29,1.84.29,1.1,0,1.95-.26,2.55-.78.6-.52.9-1.27.9-2.24,0-.54-.14-.99-.41-1.33s-.63-.63-1.08-.87-.96-.43-1.53-.59c-.57-.16-1.16-.34-1.75-.53-.59-.19-1.18-.42-1.75-.69-.57-.27-1.08-.62-1.53-1.05-.45-.43-.81-.97-1.08-1.61-.27-.65-.41-1.44-.41-2.39,0-.75.15-1.49.45-2.21.3-.72.74-1.35,1.32-1.91s1.29-1,2.13-1.33c.84-.33,1.8-.5,2.88-.5,1.22,0,2.35.19,3.38.57s1.91.92,2.64,1.61l-.95,1.82Z"/><path class="cls-6" d="M215.45,80.06c.21,0,.39.08.54.24l1.52,1.65c-.84,1.04-1.88,1.84-3.1,2.39-1.23.55-2.7.83-4.42.83-1.54,0-2.92-.26-4.15-.79-1.23-.53-2.28-1.26-3.15-2.19-.87-.94-1.54-2.05-2-3.35-.46-1.3-.7-2.72-.7-4.26s.26-2.98.77-4.28c.52-1.3,1.24-2.41,2.18-3.35.94-.94,2.06-1.67,3.36-2.19,1.3-.52,2.75-.78,4.32-.78s2.88.25,4.04.74c1.15.49,2.14,1.14,2.96,1.96l-1.29,1.79c-.08.11-.17.21-.29.3s-.28.13-.49.13c-.22,0-.44-.09-.67-.26s-.52-.36-.88-.56c-.35-.2-.8-.39-1.34-.56s-1.23-.26-2.06-.26c-.98,0-1.87.17-2.69.51-.82.34-1.52.82-2.11,1.46s-1.05,1.4-1.38,2.3c-.33.9-.5,1.92-.5,3.05s.17,2.2.5,3.11c.33.91.78,1.67,1.34,2.29.56.62,1.23,1.1,1.99,1.43.76.33,1.59.5,2.47.5.53,0,1-.03,1.43-.09.42-.06.82-.15,1.18-.27s.7-.28,1.02-.48.64-.44.95-.72c.1-.09.2-.16.3-.21.1-.05.22-.08.34-.08Z"/><path class="cls-6" d="M242.46,74.59c0,1.52-.25,2.93-.76,4.22-.51,1.3-1.22,2.42-2.14,3.36-.92.95-2.02,1.68-3.31,2.21s-2.72.8-4.29.8-3-.27-4.29-.8c-1.29-.53-2.4-1.27-3.33-2.21-.92-.95-1.64-2.07-2.14-3.36-.51-1.29-.76-2.7-.76-4.22s.25-2.93.76-4.22c.51-1.29,1.22-2.42,2.14-3.36.92-.95,2.03-1.68,3.33-2.22,1.3-.53,2.73-.79,4.29-.79s3,.27,4.29.8,2.39,1.27,3.31,2.21c.92.94,1.63,2.06,2.14,3.35.51,1.3.76,2.7.76,4.22ZM238.51,74.59c0-1.14-.15-2.16-.45-3.06-.3-.9-.73-1.67-1.3-2.3-.56-.63-1.25-1.11-2.06-1.45-.81-.33-1.72-.5-2.73-.5s-1.93.17-2.74.5c-.81.33-1.5.82-2.07,1.45s-1.01,1.4-1.31,2.3c-.31.9-.46,1.92-.46,3.06s.15,2.16.46,3.06c.31.9.74,1.67,1.31,2.29s1.26,1.11,2.07,1.44c.81.33,1.73.5,2.74.5s1.92-.17,2.73-.5c.81-.33,1.49-.81,2.06-1.44.56-.63,1-1.39,1.3-2.29.3-.9.45-1.92.45-3.06Z"/><path class="cls-6" d="M267.54,74.59c0,1.52-.25,2.93-.76,4.22-.51,1.3-1.22,2.42-2.14,3.36-.92.95-2.02,1.68-3.31,2.21s-2.72.8-4.29.8-3-.27-4.29-.8c-1.29-.53-2.4-1.27-3.33-2.21-.92-.95-1.64-2.07-2.14-3.36-.51-1.29-.76-2.7-.76-4.22s.25-2.93.76-4.22c.51-1.29,1.22-2.42,2.14-3.36.92-.95,2.03-1.68,3.33-2.22,1.3-.53,2.73-.79,4.29-.79s3,.27,4.29.8,2.39,1.27,3.31,2.21c.92.94,1.63,2.06,2.14,3.35.51,1.3.76,2.7.76,4.22ZM263.58,74.59c0-1.14-.15-2.16-.45-3.06-.3-.9-.73-1.67-1.3-2.3-.56-.63-1.25-1.11-2.06-1.45-.81-.33-1.72-.5-2.73-.5s-1.93.17-2.74.5c-.81.33-1.5.82-2.07,1.45s-1.01,1.4-1.31,2.3c-.31.9-.46,1.92-.46,3.06s.15,2.16.46,3.06c.31.9.74,1.67,1.31,2.29s1.26,1.11,2.07,1.44c.81.33,1.73.5,2.74.5s1.92-.17,2.73-.5c.81-.33,1.49-.81,2.06-1.44.56-.63,1-1.39,1.3-2.29.3-.9.45-1.92.45-3.06Z"/><path class="cls-6" d="M276.71,77.65v7.3h-3.86v-20.73h6.75c1.39,0,2.59.16,3.6.49s1.85.78,2.51,1.36c.66.58,1.15,1.28,1.46,2.09s.47,1.7.47,2.67-.17,1.92-.5,2.76c-.33.84-.84,1.56-1.5,2.16s-1.51,1.07-2.51,1.41c-1,.33-2.18.5-3.53.5h-2.9ZM276.71,74.64h2.9c.71,0,1.32-.09,1.85-.26s.96-.43,1.3-.76c.34-.33.6-.73.77-1.2.17-.47.26-1,.26-1.58s-.09-1.06-.26-1.5-.43-.83-.77-1.15-.78-.56-1.3-.72-1.14-.25-1.85-.25h-2.9v7.44Z"/></g></svg>